<?xml version="1.0" encoding="UTF-8"?>
<svg xmlns="http://www.w3.org/2000/svg" xmlns:xlink="http://www.w3.org/1999/xlink" viewBox="0 0 327.32 305.13">
  <defs>
    <style>
      .cls-1 {
        fill: url(#_Áåçûìÿííûé_ãðàäèåíò_1926);
      }

      .cls-2 {
        fill: url(#_Áåçûìÿííûé_ãðàäèåíò_167);
      }

      .cls-3 {
        opacity: .48;
      }

      .cls-3, .cls-4, .cls-5, .cls-6, .cls-7, .cls-8, .cls-9, .cls-10, .cls-11, .cls-12, .cls-13, .cls-14 {
        mix-blend-mode: multiply;
      }

      .cls-4 {
        fill: url(#_Áåçûìÿííûé_ãðàäèåíò_169-6);
      }

      .cls-4, .cls-5, .cls-7, .cls-10, .cls-11, .cls-12, .cls-13, .cls-14 {
        opacity: .19;
      }

      .cls-5 {
        fill: url(#_Áåçûìÿííûé_ãðàäèåíò_169-3);
      }

      .cls-15 {
        isolation: isolate;
      }

      .cls-6 {
        opacity: .21;
      }

      .cls-6, .cls-16, .cls-17 {
        fill: #ffba4f;
      }

      .cls-7 {
        fill: url(#_Áåçûìÿííûé_ãðàäèåíò_169-2);
      }

      .cls-8 {
        fill: url(#_Áåçûìÿííûé_ãðàäèåíò_1888);
        opacity: .44;
      }

      .cls-18 {
        fill: url(#_Áåçûìÿííûé_ãðàäèåíò_80);
      }

      .cls-18, .cls-19, .cls-20, .cls-21, .cls-22, .cls-23 {
        mix-blend-mode: screen;
      }

      .cls-18, .cls-19, .cls-20, .cls-22, .cls-23 {
        opacity: .72;
      }

      .cls-19 {
        fill: url(#_Áåçûìÿííûé_ãðàäèåíò_80-4);
      }

      .cls-16 {
        opacity: .64;
      }

      .cls-20 {
        fill: url(#_Áåçûìÿííûé_ãðàäèåíò_80-5);
      }

      .cls-9 {
        opacity: .35;
      }

      .cls-10 {
        fill: url(#_Áåçûìÿííûé_ãðàäèåíò_169-8);
      }

      .cls-11 {
        fill: url(#_Áåçûìÿííûé_ãðàäèåíò_169-4);
      }

      .cls-21 {
        fill: url(#_Áåçûìÿííûé_ãðàäèåíò_1925);
      }

      .cls-22 {
        fill: url(#_Áåçûìÿííûé_ãðàäèåíò_80-3);
      }

      .cls-23 {
        fill: url(#_Áåçûìÿííûé_ãðàäèåíò_80-2);
      }

      .cls-24 {
        fill: url(#_Áåçûìÿííûé_ãðàäèåíò_1926-2);
      }

      .cls-12 {
        fill: url(#_Áåçûìÿííûé_ãðàäèåíò_169-7);
      }

      .cls-13 {
        fill: url(#_Áåçûìÿííûé_ãðàäèåíò_169);
      }

      .cls-14 {
        fill: url(#_Áåçûìÿííûé_ãðàäèåíò_169-5);
      }

      .cls-25 {
        fill: #fff7d1;
      }

      .cls-26 {
        fill: #aa3c00;
      }
    </style>
    <linearGradient id="_Áåçûìÿííûé_ãðàäèåíò_1926" data-name="Áåçûìÿííûé ãðàäèåíò 1926" x1="38.81" y1="29.31" x2="54.13" y2="29.31" gradientUnits="userSpaceOnUse">
      <stop offset="0" stop-color="#e5cd39"/>
      <stop offset=".13" stop-color="#e5d045"/>
      <stop offset=".38" stop-color="#e8d865"/>
      <stop offset=".7" stop-color="#ece699"/>
      <stop offset="1" stop-color="#f1f5d0"/>
    </linearGradient>
    <linearGradient id="_Áåçûìÿííûé_ãðàäèåíò_167" data-name="Áåçûìÿííûé ãðàäèåíò 167" x1="259.13" y1="41.2" x2="47.78" y2="252.55" gradientUnits="userSpaceOnUse">
      <stop offset="0" stop-color="#f1f5d0"/>
      <stop offset=".3" stop-color="#ece699"/>
      <stop offset=".62" stop-color="#e8d865"/>
      <stop offset=".87" stop-color="#e5d045"/>
      <stop offset="1" stop-color="#e5cd39"/>
    </linearGradient>
    <linearGradient id="_Áåçûìÿííûé_ãðàäèåíò_1926-2" data-name="Áåçûìÿííûé ãðàäèåíò 1926" x1="214.52" y1="265.86" x2="258.37" y2="265.86" xlink:href="#_Áåçûìÿííûé_ãðàäèåíò_1926"/>
    <linearGradient id="_Áåçûìÿííûé_ãðàäèåíò_169" data-name="Áåçûìÿííûé ãðàäèåíò 169" x1="83.32" y1="30.77" x2="68.68" y2="45.41" gradientUnits="userSpaceOnUse">
      <stop offset="0" stop-color="#fff"/>
      <stop offset=".05" stop-color="#ffede5"/>
      <stop offset=".15" stop-color="#ffc8b0"/>
      <stop offset=".26" stop-color="#ffa881"/>
      <stop offset=".37" stop-color="#ff8c59"/>
      <stop offset=".48" stop-color="#ff7639"/>
      <stop offset=".6" stop-color="#ff651f"/>
      <stop offset=".72" stop-color="#ff580e"/>
      <stop offset=".85" stop-color="#ff5103"/>
      <stop offset="1" stop-color="#ff4f00"/>
    </linearGradient>
    <linearGradient id="_Áåçûìÿííûé_ãðàäèåíò_169-2" data-name="Áåçûìÿííûé ãðàäèåíò 169" x1="236.38" y1="232.33" x2="209.02" y2="259.69" xlink:href="#_Áåçûìÿííûé_ãðàäèåíò_169"/>
    <linearGradient id="_Áåçûìÿííûé_ãðàäèåíò_1888" data-name="Áåçûìÿííûé ãðàäèåíò 1888" x1="259.19" y1="41.26" x2="168.35" y2="132.11" gradientUnits="userSpaceOnUse">
      <stop offset="0" stop-color="#fff"/>
      <stop offset=".07" stop-color="#ffefe9"/>
      <stop offset=".33" stop-color="#ffb797"/>
      <stop offset=".57" stop-color="#ff8a56"/>
      <stop offset=".76" stop-color="#ff6a27"/>
      <stop offset=".91" stop-color="#ff560a"/>
      <stop offset="1" stop-color="#ff4f00"/>
    </linearGradient>
    <linearGradient id="_Áåçûìÿííûé_ãðàäèåíò_169-3" data-name="Áåçûìÿííûé ãðàäèåíò 169" x1="77.94" y1="56.75" x2="67.22" y2="67.47" xlink:href="#_Áåçûìÿííûé_ãðàäèåíò_169"/>
    <linearGradient id="_Áåçûìÿííûé_ãðàäèåíò_80" data-name="Áåçûìÿííûé ãðàäèåíò 80" x1="217.52" y1="269.82" x2="185.96" y2="301.38" gradientUnits="userSpaceOnUse">
      <stop offset="0" stop-color="#90db00"/>
      <stop offset=".12" stop-color="#73b000"/>
      <stop offset=".29" stop-color="#517b00"/>
      <stop offset=".45" stop-color="#334f00"/>
      <stop offset=".61" stop-color="#1d2c00"/>
      <stop offset=".75" stop-color="#0d1400"/>
      <stop offset=".89" stop-color="#030500"/>
      <stop offset="1" stop-color="#000"/>
    </linearGradient>
    <linearGradient id="_Áåçûìÿííûé_ãðàäèåíò_169-4" data-name="Áåçûìÿííûé ãðàäèåíò 169" x1="114.45" y1="136.84" x2="30.23" y2="221.05" xlink:href="#_Áåçûìÿííûé_ãðàäèåíò_169"/>
    <linearGradient id="_Áåçûìÿííûé_ãðàäèåíò_169-5" data-name="Áåçûìÿííûé ãðàäèåíò 169" x1="50.71" y1="24.4" x2="39.73" y2="35.39" xlink:href="#_Áåçûìÿííûé_ãðàäèåíò_169"/>
    <linearGradient id="_Áåçûìÿííûé_ãðàäèåíò_169-6" data-name="Áåçûìÿííûé ãðàäèåíò 169" x1="240.62" y1="259.54" x2="224.95" y2="275.2" xlink:href="#_Áåçûìÿííûé_ãðàäèåíò_169"/>
    <linearGradient id="_Áåçûìÿííûé_ãðàäèåíò_80-2" data-name="Áåçûìÿííûé ãðàäèåíò 80" x1="52.47" y1="22.64" x2="41.19" y2="33.91" xlink:href="#_Áåçûìÿííûé_ãðàäèåíò_80"/>
    <linearGradient id="_Áåçûìÿííûé_ãðàäèåíò_80-3" data-name="Áåçûìÿííûé ãðàäèåíò 80" x1="245.73" y1="254.4" x2="229.41" y2="270.72" xlink:href="#_Áåçûìÿííûé_ãðàäèåíò_80"/>
    <linearGradient id="_Áåçûìÿííûé_ãðàäèåíò_80-4" data-name="Áåçûìÿííûé ãðàäèåíò 80" x1="126.85" y1="249.75" x2="142.17" y2="249.75" xlink:href="#_Áåçûìÿííûé_ãðàäèåíò_80"/>
    <linearGradient id="_Áåçûìÿííûé_ãðàäèåíò_80-5" data-name="Áåçûìÿííûé ãðàäèåíò 80" x1="168.53" y1="39.88" x2="186.77" y2="39.88" xlink:href="#_Áåçûìÿííûé_ãðàäèåíò_80"/>
    <linearGradient id="_Áåçûìÿííûé_ãðàäèåíò_169-7" data-name="Áåçûìÿííûé ãðàäèåíò 169" x1="123.28" y1="251.72" x2="136.95" y2="251.72" xlink:href="#_Áåçûìÿííûé_ãðàäèåíò_169"/>
    <linearGradient id="_Áåçûìÿííûé_ãðàäèåíò_169-8" data-name="Áåçûìÿííûé ãðàäèåíò 169" x1="165.25" y1="42.55" x2="182.33" y2="42.55" xlink:href="#_Áåçûìÿííûé_ãðàäèåíò_169"/>
    <linearGradient id="_Áåçûìÿííûé_ãðàäèåíò_1925" data-name="Áåçûìÿííûé ãðàäèåíò 1925" x1="255.24" y1="41.79" x2="143.11" y2="153.91" gradientUnits="userSpaceOnUse">
      <stop offset="0" stop-color="#ffc"/>
      <stop offset=".03" stop-color="#f0f0c0"/>
      <stop offset=".19" stop-color="#b1b18d"/>
      <stop offset=".35" stop-color="#7b7b62"/>
      <stop offset=".5" stop-color="#4f4f3f"/>
      <stop offset=".64" stop-color="#2c2c23"/>
      <stop offset=".77" stop-color="#141410"/>
      <stop offset=".9" stop-color="#050504"/>
      <stop offset="1" stop-color="#000"/>
    </linearGradient>
  </defs>
  <g class="cls-15">
    <g id="Layer_2" data-name="Layer 2">
      <g id="_Ñëîé_1" data-name="Ñëîé 1">
        <g>
          <g class="cls-3">
            <path class="cls-26" d="m305.43,104.69c-21.89-41.51-26.45-31.47-57.93-49.26-31.47-17.79-27.37-31.93-53.82-38.77-26.45-6.84-38.31-5.93-43.33,8.67-5.02,14.6-15.96,4.1-41.96-8.67-2.23-1.09-4.36-2.08-6.45-3.03-.47-.21-.93-.42-1.39-.62-2.07-.92-4.09-1.77-6.02-2.52-.06-.02-.11-.04-.17-.06-1.91-.74-3.73-1.38-5.49-1.96-.28-.09-.56-.18-.83-.27-3.68-1.16-7-1.93-9.93-2.27-.09-.01-.19-.03-.29-.04-2.05-.22-3.91-.24-5.56-.02-.84.11-1.58.27-2.27.48-.78.24-1.38.5-1.94.8-.07.04-.14.06-.21.1-.52.29-.98.65-1.42,1.03-.08.07-.18.13-.26.2-.39.37-.73.81-1.06,1.26-.09.12-.19.22-.27.34-.3.46-.53.98-.76,1.52-.07.16-.16.29-.22.45-.26.72-.47,1.49-.62,2.34-.23,1.33-.37,2.62-.44,3.91-.09,1.2-.09,2.4-.06,3.58,0,.21,0,.42.01.62.05,1.19.19,2.39.37,3.59.05.32.1.65.16.98.21,1.13.47,2.28.8,3.44.12.42.25.85.38,1.27.35,1.11.74,2.25,1.2,3.4.21.53.46,1.08.69,1.62.48,1.11.98,2.24,1.57,3.41.35.69.76,1.43,1.14,2.15.59,1.09,1.16,2.18,1.83,3.34.59,1.01,1.28,2.11,1.94,3.18.6.97,1.14,1.89,1.8,2.91,1.39,2.16,2.9,4.43,4.57,6.84.77,1.11,1.46,2.18,2.1,3.2.44.72.82,1.39,1.2,2.06.15.27.33.55.47.81.47.87.88,1.7,1.25,2.48.42.91.74,1.69,1,2.42.15.41.27.8.39,1.19.18.6.33,1.18.43,1.71.14.79.17,1.47.12,2.08,0,.09-.02.18-.03.27-.07.56-.22,1.05-.45,1.44-.28.44-.63.72-1.07.91-.05.02-.12.03-.18.05-.38.13-.82.18-1.31.15-.13,0-.26-.01-.41-.03-.55-.07-1.16-.21-1.83-.46-.06-.02-.11-.03-.17-.05-.73-.28-1.54-.69-2.4-1.19-.22-.13-.47-.29-.7-.43-.68-.42-1.39-.9-2.13-1.45-.28-.21-.56-.41-.85-.64-1.01-.78-2.06-1.64-3.17-2.65-1.29-1.17-2.66-2.33-4.06-3.48-.27-.22-.53-.43-.8-.65-1.45-1.17-2.94-2.32-4.48-3.43-1.64-1.19-3.31-2.32-5-3.4-1.83-1.17-3.56-2.19-5.29-3.13-10.87-5.91-21.97-8.7-29.18-3.71-11.86,8.21,0,21.44-13.23,30.56-13.23,9.12-11.86,31.93,0,58.84,11.86,26.91,27.37,104.9,63.85,127.71,36.49,22.81,31.47,10.03,52.91,9.12,1.21-.05,2.41-.01,3.62.07.36.02.71.07,1.07.1.88.09,1.77.21,2.65.37.35.06.7.12,1.05.19,1.17.24,2.34.51,3.51.85.09.03.18.06.28.09,1.09.32,2.17.69,3.26,1.09.39.14.79.3,1.18.45.82.32,1.64.65,2.45,1.01.39.17.78.33,1.16.51,1.11.5,2.22,1.02,3.33,1.58,10.86,5.42,21.61,12.93,32.65,17.12.4.15.81.3,1.21.44,1.83.65,3.67,1.24,5.52,1.68,1.31.31,2.56.5,3.76.61.4.04.77,0,1.16.02.77.03,1.54.06,2.26,0,.45-.03.85-.14,1.28-.2.61-.09,1.23-.17,1.8-.32.44-.12.84-.29,1.25-.45.5-.18,1.01-.35,1.47-.57.42-.21.8-.47,1.19-.71.4-.25.81-.48,1.18-.77.39-.3.74-.65,1.1-.99.31-.29.63-.58.91-.9.36-.4.67-.85.99-1.29.23-.32.46-.63.67-.96.31-.51.59-1.06.86-1.61.15-.32.31-.63.45-.96.26-.62.49-1.28.69-1.95.09-.3.19-.6.27-.91.2-.74.36-1.51.5-2.3.05-.26.09-.53.13-.79.12-.86.21-1.74.26-2.64.01-.22.02-.43.03-.65.03-.97.03-1.96-.02-2.97,0-.17-.02-.33-.03-.5-.06-1.07-.17-2.16-.33-3.27-.02-.11-.04-.23-.05-.34-.18-1.16-.4-2.33-.67-3.52-.02-.07-.03-.13-.05-.2-.29-1.23-.64-2.47-1.04-3.72-.45-1.37-.91-2.66-1.45-3.95-.39-.96-.78-1.92-1.24-2.87-10.49-21.89-6.39-29.19,30.1-13.68,2.03.86,3.9,1.63,5.69,2.34.81.32,1.55.6,2.31.89.86.33,1.72.66,2.53.96.94.34,1.83.66,2.7.96.48.16.94.31,1.39.46.96.31,1.92.62,2.79.87,1.68.48,3.17.83,4.54,1.09.32.06.64.12.95.17,1.91.3,3.55.38,4.96.25.22-.02.43-.04.64-.08,1.34-.2,2.49-.59,3.48-1.17.17-.1.34-.2.5-.31.53-.36,1.03-.78,1.49-1.25.11-.11.22-.2.32-.31.23-.25.44-.52.66-.8.17-.22.35-.45.51-.68.19-.26.38-.53.56-.81.31-.48.61-.98.91-1.52.16-.28.32-.58.48-.87.24-.44.48-.89.72-1.36.12-.24.26-.49.38-.74.29-.58.6-1.17.91-1.78.33-.65.7-1.34,1.05-2.02.19-.37.37-.72.58-1.1.56-1.03,1.15-2.1,1.81-3.22,10.03-16.88,26.45-17.79,38.77-26,12.31-8.21,9.12-68.87-12.77-110.38Zm-132.65,89.84c-.93-.74-1.86-1.55-2.84-2.45-.04-.04-.08-.07-.12-.11-.98-.91-2.01-1.92-3.09-3.02-.05-.05-.09-.1-.14-.14-1.09-1.11-2.22-2.31-3.38-3.58-4.89-5.35-10.27-11.82-15.57-18.54-1.35-1.71-2.63-3.35-3.89-4.99-.07-.1-.15-.19-.23-.29-1.22-1.58-2.42-3.16-3.6-4.72-.12-.16-.24-.32-.36-.48-1.15-1.53-2.28-3.03-3.37-4.52-.13-.18-.27-.36-.4-.54-1.08-1.46-2.13-2.9-3.14-4.29-.13-.19-.27-.37-.4-.56-1-1.38-1.96-2.73-2.87-4.02-.11-.16-.22-.31-.33-.47-.91-1.29-1.79-2.54-2.6-3.72-.08-.12-.16-.23-.24-.35-.83-1.21-1.61-2.36-2.32-3.41-12.77-19.16-22.81-26-22.35-40.14.06-1.77.87-2.42,2.27-2.17.4.07.86.23,1.36.45.21.09.45.23.68.35.33.17.67.36,1.03.58.27.17.55.36.84.55.38.26.77.54,1.17.84.3.22.6.45.92.7.47.37.97.79,1.47,1.21.28.24.55.45.84.71.77.68,1.58,1.41,2.41,2.2.31.29.64.62.95.92.58.56,1.16,1.13,1.77,1.73.38.38.77.78,1.15,1.17.58.59,1.17,1.21,1.76,1.84.39.41.78.83,1.18,1.25.67.72,1.34,1.46,2.03,2.21.34.37.67.73,1.01,1.11,1.01,1.13,2.04,2.3,3.07,3.5.23.27.47.55.7.83.84.98,1.68,1.97,2.52,2.99.37.45.74.9,1.12,1.35.72.88,1.45,1.77,2.18,2.67.39.49.78.98,1.18,1.47.75.94,1.5,1.9,2.25,2.86.35.45.7.89,1.04,1.34,1.08,1.41,2.16,2.83,3.24,4.26,1.13,1.52,2.29,3.08,3.45,4.68.39.54.79,1.09,1.18,1.64.78,1.07,1.56,2.15,2.35,3.25.48.67.95,1.34,1.43,2.02.71,1,1.42,2,2.13,3.01.52.74,1.03,1.49,1.55,2.23.66.96,1.33,1.91,1.98,2.87.54.78,1.07,1.57,1.6,2.35.63.93,1.26,1.85,1.87,2.78.54.8,1.07,1.6,1.59,2.41.59.9,1.18,1.79,1.76,2.68.53.81,1.05,1.62,1.56,2.43.55.86,1.09,1.71,1.62,2.56.51.81,1.01,1.61,1.5,2.41.5.82,1,1.62,1.48,2.42.48.79.95,1.57,1.4,2.34.45.77.89,1.52,1.32,2.27.43.75.86,1.5,1.27,2.23.4.72.77,1.41,1.14,2.1.38.71.76,1.41,1.11,2.09.34.66.64,1.28.95,1.91.31.64.63,1.29.91,1.89.28.6.5,1.15.74,1.72.24.56.49,1.14.69,1.66.2.53.34.99.49,1.47.16.48.34.98.45,1.41.12.46.16.84.23,1.24.06.36.16.76.18,1.08.08,1.36-.22,2.31-1.01,2.74-.39.21-.89.23-1.48.08-1.13-.28-2.61-1.18-4.37-2.57Zm7.57-135.97c-.35-.14-.73-.33-1.13-.57-.28-.17-.58-.38-.87-.59-.21-.15-.42-.3-.64-.47-.31-.24-.62-.49-.95-.76-.22-.19-.45-.4-.68-.6-.61-.55-1.23-1.14-1.86-1.79-.21-.21-.41-.41-.62-.63-.36-.38-.72-.78-1.08-1.18-.21-.24-.43-.48-.64-.73-.37-.43-.74-.86-1.1-1.3-.11-.13-.21-.27-.32-.4-.77-.96-1.5-1.94-2.19-2.93-.1-.14-.2-.28-.3-.43-.35-.52-.69-1.04-1-1.55-.08-.13-.16-.26-.23-.39-.99-1.64-1.76-3.22-2.19-4.59-.02-.08-.05-.15-.07-.23-.13-.45-.23-.88-.28-1.28-.1-.94-.01-1.64.31-2.17.29-.46.69-.84,1.36-1.01.23-.06.46-.06.7-.1,4.71-.72,9.15,3.33,12.18,8.68.36.64.66,1.22.95,1.8.04.09.08.18.12.27.25.53.49,1.06.71,1.6.07.18.13.35.2.53.18.46.36.93.52,1.4.08.25.15.49.23.74.13.4.26.81.37,1.21.08.31.15.62.22.93.08.34.17.67.23,1.01.08.41.14.81.2,1.21.03.23.08.46.11.69.07.62.12,1.24.14,1.83,0,.27-.07.41-.1.62-.18,1.31-1,1.64-2.28,1.14,0,0,0,0,0,0Zm-56.47,197.42c-1.33-2.35-1.85-4.66-1.04-5.99-.1.19-.17.37-.26.55.31-1.04,1.14-1.72,2.69-1.72.77,0,1.54.16,2.31.4.12.04.24.06.35.1.73.26,1.45.61,2.15,1.03.13.08.27.16.4.25.69.45,1.37.95,2,1.51.08.07.16.15.24.22.64.59,1.26,1.22,1.81,1.88.62.75,1.11,1.46,1.55,2.16.05.08.09.15.14.22.41.7.75,1.39.99,2.05.02.06.04.11.06.17.49,1.39.58,2.64.09,3.49-.3.54-.81.93-1.6,1.1-.26.06-.53.04-.79.07-4.4.38-8.87-3.6-11.09-7.5Zm69-70.02c-1.31-.07-3.29-1.27-5.5-3.11-.06-.05-.12-.1-.18-.15-.52-.44-1.05-.91-1.58-1.41-.05-.05-.1-.1-.15-.14-5.61-5.29-11.78-13.57-12.08-17.78-.01.13-.04.26-.05.38-.12-.77-.02-1.38.22-1.88-.19.4-.22.93-.18,1.5.05-.5.08-1,.18-1.5.46-.97,1.56-1.45,3.7-1.08.78.13,1.55.35,2.31.62.25.09.49.21.74.31.5.2,1.01.42,1.5.67.28.15.56.32.83.48.44.26.88.52,1.3.82.28.19.56.4.83.6.41.31.81.63,1.2.96.26.22.52.45.78.69.38.36.76.72,1.12,1.1.24.24.48.48.7.74.37.41.72.83,1.07,1.26.2.24.4.47.59.72.39.51.76,1.03,1.12,1.55.12.17.25.34.36.51.45.68.86,1.36,1.24,2.04.16.29.3.58.45.88.2.4.41.79.59,1.18.16.34.29.67.42,1,.14.33.27.66.39.99.12.34.23.68.33,1.01.09.29.17.58.24.86.08.33.15.65.21.97.04.26.08.5.1.74.03.31.06.61.06.89,0,.22-.02.41-.04.61-.02.27-.04.54-.09.78-.04.17-.11.31-.17.46-.08.22-.15.46-.27.64-.42.64-1.06,1.06-1.97,1.15-.1,0-.24-.05-.34-.06Z"/>
            <path class="cls-26" d="m49.68,46.3c.26-.26.52-.56.78-.9,4.6-5.98-.77-24.1-9.68-23.27-.12.01-.23-.01-.35,0-.38.06-.72.19-1.04.36-.08.04-.15.08-.22.13-.61.38-1.09.97-1.45,1.71-.04.08-.07.15-.11.23-3.28,7.55,4.5,29.42,12.07,21.73Z"/>
            <path class="cls-26" d="m256.36,275.4c0-.45-.03-.89-.12-1.33-.06-.26-.17-.51-.26-.76-.09-.26-.15-.52-.27-.77-.24-.49-.54-.95-.91-1.37-5.93-6.84-19.16-4.56-33.75-11.86-.83-.42-1.57-.71-2.27-.94-.23-.08-.43-.12-.65-.18-.44-.12-.85-.21-1.23-.25-.22-.03-.43-.04-.63-.05-.32,0-.6.03-.88.08-.18.03-.38.05-.54.11-.24.08-.44.22-.64.35-.31.2-.57.45-.79.75-.06.09-.14.17-.2.27-.14.25-.25.52-.35.82-.03.08-.05.16-.08.25-.09.33-.16.68-.19,1.06-.06.63-.05,1.3.02,2.02.06.59.14,1.1.25,1.63.01.06.03.12.04.17.11.52.24,1.05.4,1.59.31,1.01.68,2.01,1.12,3,.08.18.15.37.23.55.14.3.3.59.45.88.17.34.35.68.53,1.01.15.26.3.5.45.75.21.35.43.69.66,1.02.15.22.31.44.46.65.25.33.5.64.75.94.15.18.31.36.46.54.29.31.58.59.87.85.14.12.27.26.41.37.43.36.87.67,1.32.91,1.64.9,3.2,1.65,4.71,2.35.31.14.63.29.94.43,1.45.64,2.84,1.2,4.18,1.67.24.09.47.16.71.24,1.23.41,2.41.76,3.54,1.04.17.04.35.1.52.14,1.2.28,2.34.48,3.44.62.26.03.52.06.78.09,1.06.11,2.08.18,3.03.17.15,0,.29-.02.44-.02.82-.02,1.6-.09,2.35-.19.23-.03.46-.06.68-.09.77-.13,1.49-.3,2.17-.51.24-.07.46-.16.68-.24.52-.19,1.01-.39,1.47-.62.24-.12.47-.24.69-.36.44-.25.85-.53,1.24-.82.21-.16.41-.31.6-.48.38-.33.74-.67,1.05-1.04,1.36-1.58,2.07-3.4,2.12-5.15,0-.1-.02-.2-.03-.3Z"/>
          </g>
          <g>
            <path class="cls-1" d="m52.44,39.71c4.66-6.06-.91-24.63-10.03-23.26-9.12,1.37.91,35.12,10.03,23.26Z"/>
            <path class="cls-2" d="m307.41,99.01c-21.89-41.51-26.45-31.47-57.93-49.26-31.47-17.79-27.37-31.93-53.82-38.77-26.45-6.84-38.31-5.93-43.33,8.67-5.02,14.6-15.96,4.11-41.96-8.67-26-12.77-42.87-15.51-45.15-2.28-2.28,13.23,1.84,23.75,15.96,44.24,12.77,18.52,6.84,25.09-7.75,11.86-14.6-13.23-36.94-26-48.8-17.79-11.86,8.21,0,21.44-13.23,30.56-13.23,9.12-11.86,31.93,0,58.84,11.86,26.91,27.37,104.9,63.85,127.71,36.49,22.81,31.47,10.03,52.91,9.12,21.44-.91,41.51,20.52,62.94,25.54,21.44,5.02,27.82-17.79,17.33-39.68-10.49-21.89-6.39-29.19,30.1-13.68,36.49,15.51,32.84,6.84,42.87-10.03s26.45-17.79,38.77-26c12.31-8.21,9.12-68.87-12.77-110.38ZM167.84,29.31c8.67-2.2,16.58,12.19,16.88,21.81.31,9.92-25.54-19.61-16.88-21.81Zm-30.1,228.42c-8.67,1.82-18.24-14.6-10.49-14.6s16.36,13.36,10.49,14.6Z"/>
            <path class="cls-24" d="m223.03,253.63c-14.59-7.3-7.55,15.03,0,19.16,29.19,15.96,39.68-.46,33.75-7.3-5.93-6.84-19.16-4.56-33.75-11.86Z"/>
            <path class="cls-13" d="m81.18,52.94c3.01,4.37,4.95,8.04,6.01,10.98-6.26-19.62-22.57-37.74-22.38-51.66-.98,11.66,3.53,22.07,16.37,40.68Z"/>
            <path class="cls-7" d="m200.22,230.97c-12.31,3.04,2.74,20.83,8.21,28.13-10.49-21.89-6.39-29.19,30.1-13.68,7.28,3.09,12.9,5.19,17.42,6.48-15.86-6.2-44.24-23.77-55.73-20.93Z"/>
            <path class="cls-8" d="m307.41,99.01c-21.89-41.51-26.45-31.47-57.93-49.26-31.47-17.79-27.37-31.93-53.82-38.77-26.45-6.84-38.31-5.93-43.33,8.67-5.02,14.6-15.96,4.11-41.96-8.67C90.44,1.19,75.9-2.67,69.16,2.01c11.33-7.01,49.64,16.27,63.66,27.3,14.95,11.77,23.16,4.4,23.16-9.93s31.47-14.41,49.72,0c18.24,14.41,25.57,36.19,52.68,42.37,27.1,6.18,39.22,13.46,53.73,59.15,14.5,45.69,17.66,65.4,4.43,78.54-13.23,13.14-25.39,11.44-32.84,28.54-2.22,5.09-3.97,9.78-5.73,13.75.99-1.94,2.09-4.06,3.45-6.34,10.03-16.88,26.45-17.79,38.77-26,12.31-8.21,9.12-68.87-12.77-110.38Z"/>
            <path class="cls-5" d="m65.21,63.59c9.32,15.82,27.74,22.96,22.79,3.22,1.22,6.81-4.68,6.97-14.58-2.01-5.72-5.18-12.62-10.27-19.62-14.08,4.39,3.32,8.37,7.7,11.41,12.87Z"/>
            <path class="cls-18" d="m196.08,298.95c-4.5-.89-10.89-2.68-17.13-4.57,4.01,1.88,8.05,3.45,12.14,4.4,20.5,4.8,27.2-15.85,18.57-36.81,3.03,10.85-2.77,39.11-13.59,36.98Z"/>
            <path class="cls-11" d="m108.84,271.38c-12.32,4.14-56.39-14.48-66.43-57.85-10.03-43.37-22.56-69.4-31.47-92.17-8.91-22.77-6.84-41.22,6.39-41.82,13.23-.6-5.02-24.32,7.3-32.53-11.86,8.21,0,21.44-13.23,30.56-13.23,9.12-11.86,31.93,0,58.84,11.86,26.91,27.37,104.9,63.85,127.71,36.49,22.81,31.47,10.03,52.91,9.12,8.01-.34,15.82,2.44,23.59,6.31-14.92-11.33-30.58-12.32-42.91-8.17Z"/>
            <path class="cls-14" d="m42.76,16.45c-.12.01-.23-.01-.35,0-9.12,1.37.91,35.12,10.03,23.26.05-.07.08-.16.13-.23-6.75,2.05-12.74-16.21-9.82-23.04Z"/>
            <path class="cls-4" d="m226.18,270.27c-4.94-2.7-9.62-13.15-8.21-18.04-7.4.33-1.38,17.03,5.06,20.55,18.05,9.87,28.93,7.35,33.22,2.38-5.52,2.98-15.45,3.11-30.07-4.89Z"/>
            <path class="cls-23" d="m42.41,16.45c-1.72.26-2.76,1.67-3.25,3.7,8.11-.35,13.17,14.99,10.16,21.89,1.03-.28,2.08-.98,3.12-2.33,4.66-6.06-.91-24.63-10.03-23.26Z"/>
            <path class="cls-22" d="m256.78,265.49c-5.93-6.84-19.16-4.56-33.75-11.86-5.75-2.88-8.11-1.12-8.43,2.28,1.19.08,2.68.52,4.52,1.44,14.6,7.3,27.82,5.02,33.75,11.86,1.95,2.25,2.09,5.53.4,8.36,5.35-3,6.45-8.7,3.52-12.08Z"/>
            <path class="cls-19" d="m132.03,243.14c-1.27,0-4.77-.67-5.18.06.14-.01.24-.06.4-.06,6.72,0,14.06,10.01,12.09,13.5.15-.02.3-.01.45-.04,5.87-1.24,0-13.45-7.75-13.45Z"/>
            <path class="cls-20" d="m184.71,51.12c0,.27-.07.41-.1.62,1.33.43,2.21.06,2.15-1.76-.3-9.62-5.05-24.1-13.71-21.9-.68.17-4.24.66-4.52,1.14,8.39-1.28,15.89,12.55,16.18,21.9Z"/>
            <path class="cls-12" d="m124.81,244.3c-4.67,8.39,2.04,16.38,10.64,14.57.75-.16,1.19-.57,1.49-1.07-7.04.61-14.28-9.95-12.13-13.5Z"/>
            <path class="cls-10" d="m182.33,52.88c-5.53-2.15-18.55-18.19-15.85-22.56-.31.03-.86-.18-.93.13-2.91,14,15.72,30.02,16.77,22.43Z"/>
            <g>
              <path class="cls-25" d="m324.2,170.81c-4.23,5.11-5.43-12.08-3.7-15.22,1.73-3.14,6.11,12.31,3.7,15.22Z"/>
              <path class="cls-25" d="m320.58,154.23c-1.15.81-3.81-4.56-2.06-4.4,1.75.16,3.49,3.39,2.06,4.4Z"/>
              <path class="cls-25" d="m227.68,43.49c-1.39,1.26-4.51-2.93-3.3-2.87,1.2.06,4.69,1.61,3.3,2.87Z"/>
              <path class="cls-25" d="m225.82,40.11c.49-1.07-2.01-2.07-2.66-1.37-.65.7,2.22,2.35,2.66,1.37Z"/>
              <path class="cls-25" d="m296.09,84.82c-.95.26-4.95-6.01-3.27-5.69s5.21,5.16,3.27,5.69Z"/>
              <path class="cls-25" d="m292.52,77.76c-.81,1.01-1.72-.56-.89-1.5.83-.94,1.42.85.89,1.5Z"/>
              <path class="cls-25" d="m191.13,12.2c-1.33.04-.84,2.07,1.18,1.6,2.02-.48.46-1.65-1.18-1.6Z"/>
              <path class="cls-25" d="m206.07,20.12c-.27,1.9-7.49-2.66-6.82-3.76.67-1.1,7.01,2.42,6.82,3.76Z"/>
              <path class="cls-25" d="m124.16,27.91c-2.47.98-5.35-8.24-2.04-7.61,3.31.63,3.75,6.93,2.04,7.61Z"/>
              <path class="cls-25" d="m125.59,28.8c-1.02-.63,1.31-3.96,2.29-2.18s-.87,3.06-2.29,2.18Z"/>
            </g>
            <g>
              <g class="cls-9">
                <path class="cls-17" d="m89.73,40.46c-1.68-6.14,11.03-2.05,12.62,2.12,1.59,4.17-10.79,4.58-12.62-2.12Z"/>
                <path class="cls-17" d="m101.7,49.73c-2.3-1.18.94-3.99,2.39-2.72,1.45,1.27.66,4.29-2.39,2.72Z"/>
                <path class="cls-17" d="m92.16,51.64c-.71-1.66,2.31-2.95,3.37-1.4,1.05,1.55-2.65,3.06-3.37,1.4Z"/>
                <path class="cls-17" d="m231.99,130.44c3.44.3.56-3.27-2.38-4.21-2.94-.93-.32,3.97,2.38,4.21Z"/>
                <path class="cls-17" d="m235.43,130.74c-.87-1.13,3.66-2.29,3.36.14-.3,2.42-2.49.99-3.36-.14Z"/>
                <path class="cls-17" d="m249.27,140.55c-1.52-2.48,3.73-1.69,3.6.11-.14,1.79-1.89,2.67-3.6-.11Z"/>
                <path class="cls-17" d="m301.6,133.44c-3.88-2.85,2.6-6.81,3.96-3.79,1.37,3.01-.08,6.64-3.96,3.79Z"/>
                <path class="cls-16" d="m148.39,98.04c3.71-.38,3.63-4.37,1.4-4.46-2.23-.09-2.88,4.61-1.4,4.46Z"/>
                <path class="cls-16" d="m154.14,94.88c3.96.39,7.11-6.96,2.09-6.66s-6.05,6.27-2.09,6.66Z"/>
                <path class="cls-16" d="m155.93,159.95c1.03-1.81-9.11-1.86-8.17,1.73.94,3.59,7.14.09,8.17-1.73Z"/>
                <path class="cls-16" d="m157.98,159.3c.56-1.8,5.4-1.49,4.79.46-.61,1.94-5.35,1.34-4.79-.46Z"/>
              </g>
              <g>
                <path class="cls-6" d="m255.23,225.53c4.74-4.4,7.56-17.22,1.16-13.52-6.4,3.71-8.55,20.38-1.16,13.52Z"/>
                <path class="cls-6" d="m251.03,214.83c4.09-2.92,2.85-7.6.2-5.79-2.65,1.81-4.07,8.56-.2,5.79Z"/>
                <path class="cls-6" d="m221.7,59.27c1.63-4.08,9.72,1.82,7.57,7.58-2.15,5.75-9.19-3.5-7.57-7.58Z"/>
                <path class="cls-6" d="m221.32,53.87c2.03-1.26.45-5.76-1.58-4.86-2.03.89-1.29,6.65,1.58,4.86Z"/>
                <path class="cls-6" d="m112.85,228.13c5.07-1.61,4.41-8.87.41-6.91-4.01,1.96-3.8,7.99-.41,6.91Z"/>
                <path class="cls-6" d="m256.06,222.76c1.53-1.42,2.85-3.72,3.74-6.05.83-3.79.1-6.72-3.41-4.69-2.03,1.18-3.63,3.66-4.64,6.29-1.01,4.63.09,8.38,4.31,4.46Z"/>
                <path class="cls-6" d="m69.99,126.79c2.16-1.55,3.1-6.46.11-5.23-2.99,1.23-3.47,7.66-.11,5.23Z"/>
                <path class="cls-6" d="m70.3,125.74c.7-.5,1.26-1.35,1.61-2.23.27-1.45-.18-2.62-1.82-1.95-.95.39-1.64,1.31-2.05,2.29-.34,1.77.33,3.27,2.25,1.88Z"/>
                <path class="cls-6" d="m251.86,212.06c.82-.59,1.37-1.24,1.8-1.9-.13-1.31-1.1-2.03-2.43-1.12-.67.46-1.27,1.24-1.71,2.11-.09,1.4.53,2.22,2.34.92Z"/>
                <path class="cls-6" d="m283.71,205.15c3.62-1.44,1.91-4.6-.45-3.72-2.36.88-2.98,5.08.45,3.72Z"/>
                <path class="cls-6" d="m284.2,203.45c.73-.29,1.19-.65,1.52-1.03-.27-.86-1.29-1.43-2.47-.99-.6.22-1.08.66-1.42,1.17.07.89.76,1.49,2.36.85Z"/>
                <path class="cls-6" d="m229.61,65.02c.13-4.54-5.13-8.47-7.28-6.62.38,4.08,5.1,9.69,7.28,6.62Z"/>
                <path class="cls-6" d="m39.65,123.81c.7-1.77,4.21.79,3.28,3.28-.93,2.49-3.98-1.52-3.28-3.28Z"/>
                <path class="cls-6" d="m43.08,126.3c.06-1.97-2.22-3.67-3.16-2.87.17,1.77,2.21,4.2,3.16,2.87Z"/>
                <path class="cls-6" d="m222.14,51.1c-.29-1.38-1.26-2.6-2.41-2.1-.11.05-.17.15-.26.22.17,1.53,1.08,2.86,2.67,1.87Z"/>
                <path class="cls-6" d="m74.04,197.55c2.03-1.26.45-5.76-1.58-4.86-2.03.89-1.29,6.65,1.58,4.86Z"/>
                <path class="cls-6" d="m74.87,194.78c-.29-1.38-1.26-2.6-2.41-2.1-.11.05-.17.15-.26.22.17,1.53,1.08,2.86,2.67,1.87Z"/>
                <path class="cls-6" d="m113.68,225.37c1.28-.41,2.19-1.17,2.77-2.05-.04-1.76-1.2-3.07-3.19-2.09-.95.46-1.65,1.16-2.14,1.94.02,1.56.9,2.73,2.56,2.21Z"/>
                <path class="cls-6" d="m77,126.91c5.07-1.61,4.41-8.87.41-6.91-4.01,1.96-3.8,7.99-.41,6.91Z"/>
                <path class="cls-6" d="m77.83,124.14c1.28-.41,2.19-1.17,2.77-2.05-.04-1.76-1.2-3.07-3.2-2.09-.95.46-1.65,1.16-2.14,1.94.02,1.56.9,2.73,2.56,2.21Z"/>
              </g>
              <g>
                <path class="cls-17" d="m101.48,44.83c-1.48-3.19-9.17-6.21-11.78-4.58.02.07,0,.13.03.21,1.4,5.14,9,6.09,11.75,4.37Z"/>
                <path class="cls-17" d="m301.6,133.44c1.72,1.26,2.93,1.22,3.66.55-.04-.62-.18-1.27-.46-1.9-.75-1.65-3.01-1.21-4.29-.01.16.46.49.92,1.09,1.36Z"/>
                <path class="cls-16" d="m149.02,96.03c-.59-.02-1.06.3-1.42.76.01.74.26,1.31.79,1.25.92-.09,1.6-.41,2.08-.83-.19-.65-.68-1.15-1.45-1.18Z"/>
                <path class="cls-16" d="m155.46,90.66c-1.75.1-2.98.91-3.72,1.92.1,1.17.87,2.15,2.4,2.3,1.6.16,3.03-.95,3.88-2.3-.05-1.14-.76-2.02-2.56-1.92Z"/>
                <path class="cls-16" d="m148,162.1c1.02,2.03,4.32.85,6.39-.64-1.52-.48-4.72-.36-6.39.64Z"/>
              </g>
            </g>
            <path class="cls-21" d="m255.95,166.72c20.16,49.62-6.62,70.19-28.01,72.03,10.06,4.68,20.45,10.2,28,13.15,15.05,4.33,17.15-.62,22.01-10.18,1.76-3.97,3.51-8.65,5.72-13.74,7.45-17.1,19.61-15.4,32.84-28.54,13.23-13.14,10.07-32.84-4.43-78.54-14.5-45.69-26.62-52.96-53.73-59.15-27.1-6.18-34.43-27.97-52.68-42.37-18.24-14.41-49.72-14.33-49.72,0s-8.21,21.7-23.16,9.93c-14.02-11.04-52.33-34.31-63.66-27.3,2.51-1.74,6.1-2.29,10.65-1.8-8.27-.9-13.41,1.63-14.59,8.49-.44,2.57-.56,5.03-.5,7.49-.03-1.3-.02-2.61.09-3.93-.19,13.92,16.12,32.04,22.38,51.66.15.41.27.8.39,1.18,1.41-12.19,145.62,45.62,168.37,101.62ZM167.84,29.31c8.67-2.2,16.58,12.19,16.88,21.81.31,9.92-25.54-19.61-16.88-21.81Z"/>
          </g>
        </g>
      </g>
    </g>
  </g>
</svg>