<?xml version="1.0" encoding="UTF-8"?>
<svg xmlns="http://www.w3.org/2000/svg" xmlns:xlink="http://www.w3.org/1999/xlink" viewBox="0 0 175.96 160.93">
  <defs>
    <style>
      .cls-1 {
        opacity: .72;
      }

      .cls-2, .cls-3 {
        fill: #ff9994;
      }

      .cls-4 {
        isolation: isolate;
      }

      .cls-3 {
        opacity: .38;
      }

      .cls-3, .cls-5 {
        mix-blend-mode: multiply;
      }

      .cls-6 {
        fill: url(#_Áåçûìÿííûé_ãðàäèåíò_1696);
        opacity: .81;
      }

      .cls-6, .cls-7, .cls-8, .cls-9 {
        mix-blend-mode: screen;
      }

      .cls-7 {
        fill: url(#_Áåçûìÿííûé_ãðàäèåíò_1726);
      }

      .cls-7, .cls-8, .cls-9 {
        opacity: .69;
      }

      .cls-8 {
        fill: #fff;
      }

      .cls-9 {
        fill: url(#_Áåçûìÿííûé_ãðàäèåíò_180);
      }

      .cls-5 {
        fill: url(#_Áåçûìÿííûé_ãðàäèåíò_1738);
        opacity: .32;
      }

      .cls-10 {
        fill: url(#_Áåçûìÿííûé_ãðàäèåíò_1725);
      }

      .cls-11 {
        fill: url(#_Áåçûìÿííûé_ãðàäèåíò_179);
      }
    </style>
    <linearGradient id="_Áåçûìÿííûé_ãðàäèåíò_1725" data-name="Áåçûìÿííûé ãðàäèåíò 1725" x1="0" y1="83.23" x2="175.96" y2="83.23" gradientUnits="userSpaceOnUse">
      <stop offset=".04" stop-color="#c75410"/>
      <stop offset=".35" stop-color="#c04f0e"/>
      <stop offset=".81" stop-color="#ad430b"/>
      <stop offset="1" stop-color="#a33d0a"/>
    </linearGradient>
    <linearGradient id="_Áåçûìÿííûé_ãðàäèåíò_179" data-name="Áåçûìÿííûé ãðàäèåíò 179" x1="88" y1="158.08" x2="88" y2="0" gradientUnits="userSpaceOnUse">
      <stop offset="0" stop-color="#f28686"/>
      <stop offset=".94" stop-color="#ffc2c2"/>
    </linearGradient>
    <linearGradient id="_Áåçûìÿííûé_ãðàäèåíò_1726" data-name="Áåçûìÿííûé ãðàäèåíò 1726" x1="87.88" y1="158.08" x2="87.88" y2="77.14" gradientUnits="userSpaceOnUse">
      <stop offset="0" stop-color="#ffaeab"/>
      <stop offset=".25" stop-color="#a5716f"/>
      <stop offset=".51" stop-color="#4d3433"/>
      <stop offset=".7" stop-color="#150e0e"/>
      <stop offset=".78" stop-color="#000"/>
    </linearGradient>
    <linearGradient id="_Áåçûìÿííûé_ãðàäèåíò_1696" data-name="Áåçûìÿííûé ãðàäèåíò 1696" x1="88.26" y1="184.59" x2="88.26" y2="102.14" gradientUnits="userSpaceOnUse">
      <stop offset=".14" stop-color="#ffaeab"/>
      <stop offset=".2" stop-color="#f5a7a4"/>
      <stop offset=".29" stop-color="#db9593"/>
      <stop offset=".41" stop-color="#b17876"/>
      <stop offset=".54" stop-color="#76504f"/>
      <stop offset=".7" stop-color="#2c1e1e"/>
      <stop offset=".78" stop-color="#000"/>
    </linearGradient>
    <linearGradient id="_Áåçûìÿííûé_ãðàäèåíò_1738" data-name="Áåçûìÿííûé ãðàäèåíò 1738" x1="-41.63" y1="67.34" x2="54.39" y2="67.34" gradientUnits="userSpaceOnUse">
      <stop offset=".21" stop-color="#b30042"/>
      <stop offset="1" stop-color="#fff"/>
    </linearGradient>
    <linearGradient id="_Áåçûìÿííûé_ãðàäèåíò_180" data-name="Áåçûìÿííûé ãðàäèåíò 180" x1="99.05" y1="69.56" x2="175.93" y2="69.56" gradientUnits="userSpaceOnUse">
      <stop offset=".22" stop-color="#000"/>
      <stop offset=".3" stop-color="#150e0e"/>
      <stop offset=".49" stop-color="#4d3433"/>
      <stop offset=".75" stop-color="#a5716f"/>
      <stop offset="1" stop-color="#ffaeab"/>
    </linearGradient>
  </defs>
  <g class="cls-4">
    <g id="Layer_2" data-name="Layer 2">
      <g id="_Ñëîé_1" data-name="Ñëîé 1">
        <g>
          <g>
            <path class="cls-10" d="m.18,72.3c2.31,27.49,11.91,48.48,23.93,58.3,11.86,9.69,18.57,35.52,37.03,29.4,19.85-6.58,16.61-21.96,52.46-23.09,39.65-1.25,76.33-29.04,57.08-78.51C148.71,1.96,92.48-3.96,46.38,15.81,6.32,33-1.35,54.11.18,72.3Z"/>
            <path class="cls-11" d="m.19,73.28c1.51,22.95,11.38,44,23.54,53.97,11.99,9.84,18.8,36.22,37.46,29.85,20.08-6.86,15.75-20.4,52.06-22.61,39.7-2.42,76.68-26.61,57.43-76.08C148.71,1.96,92.99-11.57,46.19,9.21,5.6,27.23-1.01,55.09.19,73.28Z"/>
            <path class="cls-7" d="m113.39,132.87c-36.43,2.29-32.08,15.9-52.23,22.84-18.71,6.44-25.54-20.09-37.57-29.96C12.38,116.53,3.15,97.95.54,77.14c2.29,21.4,11.69,40.68,23.19,50.11,11.99,9.84,18.8,36.22,37.46,29.85,20.08-6.86,15.75-20.4,52.06-22.61,29.62-1.81,57.37-15.54,61.97-42.78-5.64,26.09-32.82,39.33-61.82,41.16Z"/>
            <g class="cls-1">
              <path class="cls-3" d="m8.47,71.69C.14,55.18,23.82,53.08,26.43,36.31c2.52-16.19,18.06-17.52,19.42-4.37,1.41,13.62,16.89,17.42,9.92,29.81-7.07,12.57-16.24,31.5-29.67,21.17-12.77-9.83-13.72-3.49-17.63-11.24Z"/>
              <path class="cls-3" d="m70.66,17.02c-1-9.47,34.63-22.79,50.56-6.68,17.12,17.31-1.93,15.85-9.36,8.34-7.19-7.28-39.24,17.08-41.21-1.66Z"/>
              <path class="cls-3" d="m120.96,45.74c-2.67-16.23,45.62-13.46,46.05,21.64.46,37.86-43.72,43.65-31.76,18.07,11.61-24.81-19.7-7.94-18.45-22.02,1.22-13.69,6.83-1.45,4.16-17.69Z"/>
              <path class="cls-3" d="m95.52,37.08c4.46-7.55,35.7-1.09,19.92,15.77-15.89,16.96-28.68-.91-19.92-15.77Z"/>
              <path class="cls-3" d="m61.77,28.59c2.64-8.13,16.56.99,12.46,10.38-4.15,9.51-16.49,2.03-12.46-10.38Z"/>
              <path class="cls-3" d="m55.06,26.83c7.23-.89,9.51-15.09,3.84-12.36-5.64,2.71-12.88,13.48-3.84,12.36Z"/>
              <path class="cls-3" d="m63.39,101.54c4.54-13.27,16.47,10.45,31.97-1.07,15.58-11.57,19.44-10,23.33-3.4,3.97,6.75,7.57,14.31,20.79,10.45,13.43-3.92,21.04,13.33-4.56,18.3-24.72,4.8-39.6.29-51.94,12.44-12.37,12.18-33.57,8.29-25.23-8.75,8.18-16.69,2.66-19.31,5.63-27.97Z"/>
              <path class="cls-3" d="m25.43,96.44c5.81-11.59,8.23,2.76,16.95-6.59,8.69-9.31,17.14,1.12,12.26,10.21-4.93,9.18-.05,21.87-5.95,30.92-5.95,9.12-11.65,12.45-17.19-5.39-5.28-16.99-8.68-23.95-6.07-29.15Z"/>
              <path class="cls-2" d="m20.09,98.36c2.62-8.68-6.46-21.43-10.04-12.43-3.63,9.13,6.12,25.43,10.04,12.43Z"/>
              <path class="cls-3" d="m64.84,88.57c-12.81-4.5-6.29-24.44.84-14.88,7.4,9.92,9.16,18.39-.84,14.88Z"/>
              <path class="cls-3" d="m70.22,70.93c-5.98-4.82,1.96-14.19,3.86-8.02,1.94,6.28,2.26,12.95-3.86,8.02Z"/>
              <path class="cls-3" d="m97.77,93.11c11.49.43,25.74-14.56,10.86-18.13-14.36-3.44-19.37,17.81-10.86,18.13Z"/>
              <path class="cls-3" d="m125.73,93.21c-7.59-3.88,1.77-11.08,2.34-6.65.58,4.47,1.61,8.67-2.34,6.65Z"/>
              <path class="cls-3" d="m46.38,20.69c-5.73-2.63,2.17-8.84,2.31-5.38.14,3.49.66,6.74-2.31,5.38Z"/>
              <path class="cls-3" d="m131.62,30.73c-5.2-2.56-2.11-13.77,2.56-7.4,4.77,6.52,3.74,10.49-2.56,7.4Z"/>
              <path class="cls-3" d="m138.65,32.35c-1.84-1.32,2.03-6.56,3.45-3.18,1.43,3.41,1.18,6.49-3.45,3.18Z"/>
              <path class="cls-3" d="m76.92,72.15c-1.62-1.42,2.32-6.65,3.4-3.13,1.1,3.55.66,6.71-3.4,3.13Z"/>
              <path class="cls-3" d="m48.28,145.9c-1.61-1.74,2.59-7.4,3.59-3.31,1.01,4.14.46,7.7-3.59,3.31Z"/>
              <path class="cls-3" d="m4.98,81.39c-1.31-1.36,2.52-6.3,3.21-2.95.69,3.38.08,6.37-3.21,2.95Z"/>
              <path class="cls-3" d="m164.6,94.86c-2.11-1.66,2.08-7.52,3.77-3.49,1.71,4.08,1.53,7.66-3.77,3.49Z"/>
              <path class="cls-3" d="m44.2,73.11c8.84-9.87,6.73-15.75,3.68-24.25-2.98-8.28-10.68-10.76-13.36,1.7-2.75,12.77-12.09,15.84-10.09,22.18,2.04,6.46,9.19,12.18,19.77.37Z"/>
              <path class="cls-3" d="m75.72,20.42c-1.4-6.09-.82-11.31,14.77-13.78,16.01-2.53,15.42,3.23,8.71,8.85-6.7,5.61-22.2,10.48-23.48,4.93Z"/>
              <path class="cls-3" d="m122.95,19.27c2.65-2.7-3.03-10.3-6.08-8.29-3.05,2.01,2.06,12.38,6.08,8.29Z"/>
              <path class="cls-3" d="m136.78,66.11c12.47-2.16,7.19,13.88,15.13,13.17,8.04-.72,18.06-17.92,8.26-27.78-9.43-9.5-31.13-15.27-30.11-5.98,1.05,9.51-9.88,9.14-6.18,16.27,3.78,7.3,5.53,5.59,12.9,4.32Z"/>
              <path class="cls-3" d="m71.78,110.64c4.7-7.97,17.34.86,27.79-5.3,10.52-6.2,13.01,12.99,23.31,12.03,10.47-.97,10.9,10.36-8.07,6.37-18.2-3.83-33.6,17.53-42.79,16.93-9.02-.58-13.28-5.12-5.92-15.67,7.3-10.46,1.94-8.04,5.68-14.37Z"/>
              <path class="cls-3" d="m33.61,106.86c5.18-5.98,5.08,2.67,10.56.18,5.51-2.5,7.62,5.87,4.1,17.35-3.59,11.69-9.92,13.55-13.59,1.71-3.56-11.46-6.1-13.44-1.07-19.25Z"/>
              <path class="cls-3" d="m97.18,51.05c-2.76-6.02,7.39-15.06,8.88-5.36,1.52,9.94-3.63,16.78-8.88,5.36Z"/>
              <path class="cls-3" d="m30.33,73.34c.7-2.48,7.71-2.2,12.3-6.91,4.58-4.7,5.27,5.48-1.51,7.64-6.72,2.15-12.62,5.75-10.79-.73Z"/>
              <path class="cls-3" d="m132.49,54.98c4.08-8.29,4.87-13.78,14.74-4.73,10.25,9.4,9.52,13.39.36,11.63-8.97-1.72-20.11,3.27-15.1-6.9Z"/>
              <path class="cls-3" d="m69.3,136.22c-5.37-6.18,6.71-7.47,11.53-16.9,4.77-9.34,21.35-.94,12.59,6.64-8.76,7.57-19.23,15.89-24.12,10.27Z"/>
            </g>
            <path class="cls-6" d="m61.19,157.1c20.08-6.86,15.75-20.4,52.06-22.61,20.12-1.23,39.21-7.9,50.92-20.49-.54.39-1.1.86-1.72,1.5-21.19,21.76-62.24,1.91-70.65,11.16-7.98,8.78-38.51,36.72-49.6,13.81-11.92-24.63-18.46-13.23-29.85-26.9,3.34,5.55,7.2,10.24,11.38,13.67,11.99,9.84,18.8,36.22,37.46,29.85Z"/>
            <path class="cls-8" d="m75.8,140.52c-1.54-1.26-2.6,2.09-1.8,2.02.8-.06,2.95-1.08,1.8-2.02Z"/>
            <path class="cls-8" d="m77.73,140.65c-1.57-1.67,3.11-7.37,3.92-4.24.8,3.09-2.8,5.43-3.92,4.24Z"/>
          </g>
          <path class="cls-5" d="m46.19,9.21C5.6,27.23-1.01,55.09.19,73.28c1.51,22.95,11.38,44,23.53,53.97,2.38,1.95,4.55,4.56,6.66,7.43-9.48-24.93,22.95-108.39,37.64-121.14C79.2,3.83,90.62,1.09,96.08.32c-16.52-1.36-33.74,1.72-49.89,8.9Z"/>
          <path class="cls-9" d="m119.79,113.58c-2.72,9.22-12.24,17.18-20.75,22.69,3.92-.82,8.57-1.44,14.2-1.78,39.7-2.42,76.68-26.61,57.43-76.08-12.06-31-34.31-49.03-59.66-55.56,19.13,5.24,13.99,93.05,8.78,110.73Z"/>
        </g>
      </g>
    </g>
  </g>
</svg>