<?xml version="1.0" encoding="UTF-8"?>
<svg xmlns="http://www.w3.org/2000/svg" xmlns:xlink="http://www.w3.org/1999/xlink" viewBox="0 0 162.43 147.9">
  <defs>
    <style>
      .cls-1 {
        fill: #cbd184;
      }

      .cls-2 {
        fill: url(#_Áåçûìÿííûé_ãðàäèåíò_193);
      }

      .cls-3 {
        fill: #42631d;
      }

      .cls-4 {
        isolation: isolate;
      }

      .cls-5 {
        fill: url(#_Áåçûìÿííûé_ãðàäèåíò_1761);
      }

      .cls-5, .cls-6, .cls-7, .cls-8, .cls-9 {
        mix-blend-mode: screen;
      }

      .cls-10 {
        fill: #e7eeb4;
      }

      .cls-6 {
        fill: #ffffbc;
      }

      .cls-11 {
        fill: url(#_Áåçûìÿííûé_ãðàäèåíò_2109);
      }

      .cls-7, .cls-12 {
        fill: #b06500;
      }

      .cls-8 {
        opacity: .88;
      }

      .cls-13 {
        opacity: .46;
      }

      .cls-9 {
        fill: url(#_Áåçûìÿííûé_ãðàäèåíò_2105);
        opacity: .68;
      }

      .cls-14 {
        opacity: .25;
      }

      .cls-12 {
        mix-blend-mode: multiply;
      }
    </style>
    <linearGradient id="_Áåçûìÿííûé_ãðàäèåíò_193" data-name="Áåçûìÿííûé ãðàäèåíò 193" x1=".2" y1="92.4" x2="159.04" y2="92.4" gradientUnits="userSpaceOnUse">
      <stop offset="0" stop-color="#374f10"/>
      <stop offset=".5" stop-color="#385111"/>
      <stop offset=".82" stop-color="#3d5a17"/>
      <stop offset="1" stop-color="#42631d"/>
    </linearGradient>
    <linearGradient id="_Áåçûìÿííûé_ãðàäèåíò_2109" data-name="Áåçûìÿííûé ãðàäèåíò 2109" x1="23.51" y1="99.06" x2="123.53" y2="63.82" gradientUnits="userSpaceOnUse">
      <stop offset="0" stop-color="#5e7d1d"/>
      <stop offset="1" stop-color="#8da837"/>
    </linearGradient>
    <linearGradient id="_Áåçûìÿííûé_ãðàäèåíò_1761" data-name="Áåçûìÿííûé ãðàäèåíò 1761" x1="33.46" y1="11.92" x2="143.64" y2="122.09" gradientUnits="userSpaceOnUse">
      <stop offset="0" stop-color="#a2a537"/>
      <stop offset="1" stop-color="#737c1e"/>
    </linearGradient>
    <linearGradient id="_Áåçûìÿííûé_ãðàäèåíò_2105" data-name="Áåçûìÿííûé ãðàäèåíò 2105" x1="79.59" y1="144.45" x2="79.59" y2="76.45" gradientUnits="userSpaceOnUse">
      <stop offset=".02" stop-color="#ffff79"/>
      <stop offset=".98" stop-color="#000"/>
    </linearGradient>
  </defs>
  <g class="cls-4">
    <g id="Layer_2" data-name="Layer 2">
      <g id="_Ñëîé_1" data-name="Ñëîé 1">
        <g>
          <g class="cls-8">
            <path class="cls-12" d="m108.36,69.66c1.64-5.43,5.2,1.92,2.86,2.68-2.34.76-4.35,2.26-2.86-2.68Z"/>
            <path class="cls-12" d="m109.87,75.39c.68,1.78,2.57,2.1,2.14.17-.43-1.93-3.29-3.16-2.14-.17Z"/>
            <path class="cls-12" d="m83.22,30.32c1.26,1.43,3.14,1.08,2.07-.58-1.07-1.66-4.18-1.82-2.07.58Z"/>
            <path class="cls-12" d="m92.49,44.05c2.9,4.08,6.3-1.13,3.95-2.55-2.34-1.42-5.61.22-3.95,2.55Z"/>
            <path class="cls-12" d="m94.73,49.01c.49.99,1.98.55,1.55-.54-.43-1.1-2.24-.85-1.55.54Z"/>
            <path class="cls-12" d="m119.78,86.3c3.36-3.72-2.46-5.91-3.34-3.31-.88,2.59,1.42,5.43,3.34,3.31Z"/>
            <path class="cls-12" d="m132.86,136.85c-3.44,4.51-4.2-3.62-1.74-3.51,2.46.11,4.87-.59,1.74,3.51Z"/>
            <path class="cls-12" d="m133.45,130.95c-.02-1.9-1.67-2.87-1.95-.91-.27,1.95,1.97,4.1,1.95.91Z"/>
            <path class="cls-12" d="m63.65,15.52c-2.6-5.04,5.07-2.24,3.92-.06-1.15,2.17-1.55,4.65-3.92.06Z"/>
            <path class="cls-12" d="m68.73,18.58c1.73.8,3.31-.28,1.66-1.37s-4.56.02-1.66,1.37Z"/>
            <path class="cls-12" d="m82.27,25.44c-.17-5.01-5.87-2.53-4.7-.05,1.17,2.48,4.8,2.91,4.7.05Z"/>
          </g>
          <g class="cls-13">
            <g class="cls-14">
              <path class="cls-7" d="m55.45,79.18c.23.38.4.79.4,1.27,0,1.36-1.11,2.47-2.47,2.47-.39,0-.75-.11-1.08-.27.43.7,1.18,1.2,2.07,1.2,1.36,0,2.47-1.11,2.47-2.47,0-.97-.57-1.79-1.39-2.19Z"/>
              <path class="cls-12" d="m55.86,80.45c0-.47-.17-.89-.4-1.27-.33-.16-.69-.27-1.08-.27-1.36,0-2.47,1.11-2.47,2.47,0,.47.17.89.4,1.27.33.16.69.27,1.08.27,1.36,0,2.47-1.11,2.47-2.47Z"/>
            </g>
            <g>
              <g class="cls-14">
                <path class="cls-7" d="m13.24,58.95c.23.38.4.79.4,1.27,0,1.36-1.11,2.47-2.47,2.47-.39,0-.75-.11-1.08-.27.43.7,1.18,1.2,2.07,1.2,1.36,0,2.47-1.11,2.47-2.47,0-.97-.57-1.79-1.39-2.19Z"/>
                <path class="cls-12" d="m13.64,60.22c0-.47-.17-.89-.4-1.27-.33-.16-.69-.27-1.08-.27-1.36,0-2.47,1.11-2.47,2.47,0,.47.17.89.4,1.27.33.16.69.27,1.08.27,1.36,0,2.47-1.11,2.47-2.47Z"/>
              </g>
              <g class="cls-14">
                <path class="cls-7" d="m33.31,39.04c.23.38.4.79.4,1.27,0,1.36-1.11,2.47-2.47,2.47-.39,0-.75-.11-1.08-.27.43.7,1.18,1.2,2.07,1.2,1.36,0,2.47-1.11,2.47-2.47,0-.97-.57-1.79-1.39-2.19Z"/>
                <path class="cls-12" d="m33.71,40.31c0-.47-.17-.89-.4-1.27-.33-.16-.69-.27-1.08-.27-1.36,0-2.47,1.11-2.47,2.47,0,.47.17.89.4,1.27.33.16.69.27,1.08.27,1.36,0,2.47-1.11,2.47-2.47Z"/>
              </g>
            </g>
            <g>
              <g class="cls-14">
                <path class="cls-7" d="m11.15,90.16c.23.38.4.79.4,1.27,0,1.36-1.11,2.47-2.47,2.47-.39,0-.75-.11-1.08-.27.43.7,1.18,1.2,2.07,1.2,1.36,0,2.47-1.11,2.47-2.47,0-.97-.57-1.79-1.39-2.19Z"/>
                <path class="cls-12" d="m11.55,91.43c0-.47-.17-.89-.4-1.27-.33-.16-.69-.27-1.08-.27-1.36,0-2.47,1.11-2.47,2.47,0,.47.17.89.4,1.27.33.16.69.27,1.08.27,1.36,0,2.47-1.11,2.47-2.47Z"/>
              </g>
              <g class="cls-14">
                <path class="cls-7" d="m31.22,70.25c.23.38.4.79.4,1.27,0,1.36-1.11,2.47-2.47,2.47-.39,0-.75-.11-1.08-.27.43.7,1.18,1.2,2.07,1.2,1.36,0,2.47-1.11,2.47-2.47,0-.97-.57-1.79-1.39-2.19Z"/>
                <path class="cls-12" d="m31.62,71.52c0-.47-.17-.89-.4-1.27-.33-.16-.69-.27-1.08-.27-1.36,0-2.47,1.11-2.47,2.47,0,.47.17.89.4,1.27.33.16.69.27,1.08.27,1.36,0,2.47-1.11,2.47-2.47Z"/>
              </g>
            </g>
            <g class="cls-14">
              <path class="cls-7" d="m35.17,99.54c.23.38.4.79.4,1.27,0,1.36-1.11,2.47-2.47,2.47-.39,0-.75-.11-1.08-.27.43.7,1.18,1.2,2.07,1.2,1.36,0,2.47-1.11,2.47-2.47,0-.97-.57-1.79-1.39-2.19Z"/>
              <path class="cls-12" d="m35.57,100.81c0-.47-.17-.89-.4-1.27-.33-.16-.69-.27-1.08-.27-1.36,0-2.47,1.11-2.47,2.47,0,.47.17.89.4,1.27.33.16.69.27,1.08.27,1.36,0,2.47-1.11,2.47-2.47Z"/>
            </g>
            <g class="cls-14">
              <path class="cls-7" d="m61.07,103.08c.23.38.4.79.4,1.27,0,1.36-1.11,2.47-2.47,2.47-.39,0-.75-.11-1.08-.27.43.7,1.18,1.2,2.07,1.2,1.36,0,2.47-1.11,2.47-2.47,0-.97-.57-1.79-1.39-2.19Z"/>
              <path class="cls-12" d="m61.47,104.35c0-.47-.17-.89-.4-1.27-.33-.16-.69-.27-1.08-.27-1.36,0-2.47,1.11-2.47,2.47,0,.47.17.89.4,1.27.33.16.69.27,1.08.27,1.36,0,2.47-1.11,2.47-2.47Z"/>
            </g>
          </g>
        </g>
        <g>
          <path class="cls-2" d="m150.44,79.97c-.38.4-.79.78-1.2,1.17.14.73.24,1.47.25,2.26.12,6.45-4.17,13.69-12.55,21.35.03.24.1.46.1.71.2,6.83-7.41,8.06-23.67,18.11-3.69,2.28-12.21,3.21-21.37.55-4.2-1.22-14.66,3.03-16.87-5.22l-2.73-9.99c-.87-3.2-5.22-5.11-9.25-4.07l-12.83-7.96c-4.6,1.22-16.17,5.59-22.27,2.21-4.51-2.5-6.65-.05-6.77-8.5-6.49-4.21-9.89-12.12-10.04-23.63-.14-10.72,1.84-24.56,12-29.59.35-.17.72-.31,1.09-.46C11.23,38.6-.09,47.4.21,71.55c.08,6.49,3.23,29.75,4.67,33.78,9.85,27.55,51.9,16.32,51.9,16.32,6.41,24.11,48.04,32.79,67.25,21.09,13.71-8.35,21.96-16.02,26.53-22.86,4.65-6.96,9.03-22.64,8.41-29.8-.57-6.59-4.09-12.87-8.54-10.12Z"/>
          <path class="cls-1" d="m102.49,95.71c.25,2.9,3.88,13.43,1.52,19.22-1.07,2.62-2.74,3.7-4.24,4.14,14.96-1.59,5.19-17.18,3.01-23.58-.18-.54-.2-1.08-.13-1.6-.15.46-.23,1.04-.16,1.83Z"/>
          <path class="cls-1" d="m113.03,79.27c25.45,8.54,22.59,20.8,11.1,16.2,4,.78,7.68.85,9.77-.86,10.29-8.46-13.22-18.75-30.78-22.23-2.2-.43-3.36-2.21-3.27-3.95-.09,3.16,0,6.08,13.17,10.84Z"/>
          <path class="cls-1" d="m82.83,100.98c-.69-8.45-.5-12.9-.29-15.23-2.12,11.72-5.27,31.51,11.72,33.32-3.56-.62-10.25-3.65-11.43-18.09Z"/>
          <path class="cls-1" d="m114.69,31.87c19.98,1.79,17.13,14.06,14.26,18.22,1.58-1.5,2.91-3.1,3.84-4.82,10.8-20.02-48-25-49.63-2.69-.34,4.67.58,10.1,1.49,14.74-1.53-11.3,3.58-27.38,30.03-25.46Z"/>
          <path class="cls-1" d="m47.45,54.61c16.64,8.35,34.03,26.5,38.2,13.6-1.17,1.88-4.05,2.62-6.18,1.07-11.52-8.39-36.48-26.6-48.12-19.17-11.76,7.5-11.73,29.47-1.18,38.21-8.76-7.26-10.64-40.88,17.28-33.71Z"/>
          <path class="cls-3" d="m139.25,58.44l-3.62,2.71c1.24,1.29,2.11,2.64,2.52,4.04.68,2.3.26,4.95-.99,7.57l2.55,1.76c.31.22,5.43-11.06,6.94-3.03.41-.32,5.03-.94,5.46-1.24,3.33-3.91,5.72-8.31,6.79-12.91.99-4.22,3.74-9.87,3.44-18.59-.37-10.68-7.43-13.82-18.53-15.55,3.6,3.01,5.97,6.4,6.98,10.11,2.27,8.33-2.37,18.43-11.54,25.15Z"/>
          <g>
            <path class="cls-11" d="m116.67,1.57c-52.56-9.88-55.08,30.14-55.08,30.14C61.6,31.71-.77,2.5,0,71.8c.63,56.61,56.55,38.78,56.55,38.78,6.64,29.76,49.75,40.41,69.74,25.99,60.42-43.58,19.93-70.21,19.93-70.21,22.98-16.84,28.19-53.94-29.56-64.8Zm17.28,50.97l-11.93,8.9c-3.66,2.73-3.53,7.91.28,10.54l12.4,8.57c.33.24,5.33,3.96,5.43,9.88.14,8.48-9.3,20.21-25.94,32.2-3.77,2.72-12.46,3.83-21.79.67-4.28-1.45-14.5-5.93-16.78-16.14l-2.81-12.39c-.9-3.97-5.42-6.35-9.62-5.05l-13.09,4.05c-4.67,1.45-17.03,3.26-23.27-.79-4.66-3.02-7.18-10.35-7.31-21.2-.16-13.95,2.83-24.02,8-26.93,6.2-3.5,19.57.02,25.34,2.67l16.19,7.47c4.68,2.16,10.21-.67,10.6-5.42l1.34-16.37c.01-.08.9-8.06,6.94-12.21,5.05-3.47,13.69-4.18,25.01-2.05,16.75,3.14,27.88,9.16,29.77,16.11,1.48,5.43-2.1,12.6-8.77,17.48Z"/>
            <path class="cls-5" d="m150.79,33.29c-2.77-10.19-15.64-17.93-36.24-21.8-13.91-2.61-24.57-1.47-31.66,3.4-9.17,6.3-10.18,17.46-10.19,17.57l-1.24,15.12-14.87-6.87c-5.75-2.65-23.04-8.27-33.5-2.38-10.09,5.68-12.05,21.32-11.92,33.44.15,13.6,3.81,22.82,10.87,27.39,9.72,6.3,25.54,3.43,30.82,1.8l12.02-3.73,2.58,11.38c3.12,13.97,16.5,19.89,22.1,21.78,11.11,3.76,23.09,3.03,29.82-1.82,19.21-13.85,29.25-27.06,29.06-38.24-.17-9.82-8.39-15.62-8.74-15.86l-11.41-7.89,10.96-8.18c9.17-6.71,13.8-16.82,11.54-25.14Zm-16.84,19.24l-11.96,8.93c-3.65,2.72-3.51,7.87.28,10.49l12.43,8.59c.33.24,5.33,3.96,5.43,9.88.14,8.48-9.3,20.21-25.94,32.2-3.77,2.72-12.46,3.83-21.79.67-4.28-1.45-14.5-5.93-16.78-16.14l-2.82-12.42c-.9-3.96-5.4-6.32-9.58-5.03l-13.12,4.06c-4.67,1.45-17.03,3.26-23.27-.79-4.66-3.02-7.18-10.35-7.31-21.2-.16-13.95,2.83-24.02,8-26.93,6.2-3.5,19.57.02,25.34,2.67l16.23,7.49c4.66,2.15,10.17-.67,10.56-5.4l1.34-16.41c.01-.08.9-8.06,6.94-12.21,5.05-3.47,13.69-4.18,25.01-2.05,16.75,3.14,27.88,9.16,29.77,16.11,1.48,5.43-2.1,12.6-8.77,17.48Z"/>
            <path class="cls-10" d="m142.73,35.06c-1.89-6.95-13.02-12.97-29.77-16.11-11.32-2.12-19.96-1.42-25.01,2.05-6.04,4.15-6.93,12.13-6.94,12.21l-1.34,16.41c-.39,4.73-5.9,7.55-10.56,5.4l-16.23-7.49c-5.77-2.65-19.14-6.17-25.34-2.67-5.16,2.91-8.15,12.98-8,26.93.12,10.85,2.65,18.18,7.31,21.2,6.24,4.04,18.59,2.23,23.27.79l13.12-4.06c4.18-1.29,8.68,1.07,9.58,5.03l2.82,12.42c2.28,10.21,12.5,14.69,16.78,16.14,9.33,3.16,18.01,2.05,21.79-.67,16.63-11.98,26.08-23.72,25.94-32.2-.1-5.92-5.1-9.64-5.43-9.88l-12.43-8.59c-3.79-2.62-3.93-7.77-.28-10.49l11.96-8.93c6.67-4.88,10.25-12.05,8.77-17.48Zm-9.94,10.22c-5.33,9.89-23.6,16.12-31,20.17-3.18,1.75-2.31,6.21,1.34,6.93,17.55,3.47,41.07,13.77,30.78,22.23-5.49,4.51-22.34-3.43-26.59-4.06-3.02-.45-5.44,2.27-4.53,4.94,2.26,6.64,12.69,23.16-4.8,23.71-21.39.68-17.61-21.53-15.35-33.93.58-3.16-3.11-5.55-6.16-3.98-5.5,2.84-17.31,8.36-29.3,11-25.04,5.5-32.29-31.66-15.82-42.18,11.64-7.42,36.59,10.78,48.12,19.17,2.77,2.02,6.84.18,6.73-3.04-.14-4.22-3.65-15.19-3.03-23.65,1.63-22.31,60.42-17.34,49.63,2.69Z"/>
          </g>
          <path class="cls-9" d="m126.89,132.63c-20.17,14.65-63.61,3.84-70.3-26.42,0,0-50.46,16.21-56.39-29.75,3.22,51.05,56.36,34.13,56.36,34.13,6.64,29.76,49.75,40.41,69.74,25.99,22.99-16.58,31.29-30.94,32.68-42.36-2.94,10.79-11.92,23.75-32.09,38.4Z"/>
          <path class="cls-6" d="m70.25,117.77c-.33-9.38,5.76,2.96,4.66,6.24-1.09,3.24-4.43.1-4.66-6.24Z"/>
          <path class="cls-6" d="m118.28,130.02c3.92,6.93-8.65,5.7-8.59,1.52.06-4.25,5.79-6.47,8.59-1.52Z"/>
          <path class="cls-6" d="m76.17,123.85c-.2-2.18,2.61-5,2.93-2.1.32,2.87-2.73,4.26-2.93,2.1Z"/>
          <path class="cls-6" d="m106.12,132.41c-.07-2.11,2.86-4.84,3.01-2.03.15,2.78-2.94,4.12-3.01,2.03Z"/>
          <path class="cls-6" d="m134.55,120.89c4.45,5.7,4.11-2.27,3.73-5.96-.39-3.75-7.52,1.1-3.73,5.96Z"/>
        </g>
      </g>
    </g>
  </g>
</svg>