<?xml version="1.0" encoding="UTF-8"?>
<svg xmlns="http://www.w3.org/2000/svg" xmlns:xlink="http://www.w3.org/1999/xlink" viewBox="0 0 56.5 57.83">
  <defs>
    <style>
      .cls-1 {
        isolation: isolate;
      }

      .cls-2 {
        fill: url(#_Áåçûìÿííûé_ãðàäèåíò_273);
      }

      .cls-3 {
        fill: url(#_Áåçûìÿííûé_ãðàäèåíò_274);
        opacity: .69;
      }

      .cls-3, .cls-4, .cls-5 {
        mix-blend-mode: screen;
      }

      .cls-4 {
        fill: #fff;
        opacity: .9;
      }

      .cls-6 {
        fill: #82141c;
      }

      .cls-5 {
        fill: #ff7373;
        opacity: .53;
      }

      .cls-7 {
        opacity: .71;
      }
    </style>
    <linearGradient id="_Áåçûìÿííûé_ãðàäèåíò_273" data-name="Áåçûìÿííûé ãðàäèåíò 273" x1="117.46" y1="1588.24" x2="56.7" y2="1540.13" gradientTransform="translate(-1527.77 -46.34) rotate(-84.58) scale(.96 1)" gradientUnits="userSpaceOnUse">
      <stop offset=".02" stop-color="#ffc2c2"/>
      <stop offset=".98" stop-color="#ce6363"/>
    </linearGradient>
    <linearGradient id="_Áåçûìÿííûé_ãðàäèåíò_274" data-name="Áåçûìÿííûé ãðàäèåíò 274" x1="55.23" y1=".36" x2="27.5" y2="28.08" gradientUnits="userSpaceOnUse">
      <stop offset=".16" stop-color="#ffaeab"/>
      <stop offset=".36" stop-color="#a5716f"/>
      <stop offset=".57" stop-color="#4d3433"/>
      <stop offset=".71" stop-color="#150e0e"/>
      <stop offset=".78" stop-color="#000"/>
    </linearGradient>
  </defs>
  <g class="cls-1">
    <g id="Layer_2" data-name="Layer 2">
      <g id="_Ñëîé_1" data-name="Ñëîé 1">
        <g>
          <path class="cls-6" d="m23.04,57.63C6.37,56.12-7.53,34.13,4.58,15.12,16.69-3.88,40.61-2.32,51.19,11.87c10.58,14.2,7.34,48.95-28.15,45.75Z"/>
          <path class="cls-2" d="m23.04,52.52C6.37,51.13-7.53,30.71,4.58,13.07,16.69-4.57,40.61-3.12,51.19,10.06c10.58,13.18,7.34,45.43-28.15,42.46Z"/>
          <g class="cls-7">
            <path class="cls-5" d="m36.31,9.73c1.33-.57,1.48-2.25.33-3.74-1.15-1.49-3.15-2.24-4.48-1.66-1.33.58-1.47,2.25-.33,3.75,1.15,1.49,3.15,2.23,4.48,1.66Z"/>
            <path class="cls-5" d="m36.82,9.83c1.56-.68,1.74-2.65.39-4.41-1.35-1.76-3.71-2.64-5.28-1.96-1.56.68-1.74,2.66-.38,4.41,1.35,1.76,3.71,2.63,5.27,1.96Z"/>
            <path class="cls-5" d="m29.58,38.37c1.33-.57,1.48-2.25.33-3.74-1.15-1.49-3.15-2.24-4.48-1.66-1.33.58-1.47,2.25-.33,3.75,1.15,1.49,3.15,2.23,4.48,1.66Z"/>
            <path class="cls-5" d="m30.1,38.47c1.56-.68,1.74-2.65.39-4.41-1.35-1.76-3.71-2.64-5.28-1.96-1.56.68-1.74,2.66-.38,4.41,1.35,1.76,3.71,2.63,5.27,1.96Z"/>
            <path class="cls-5" d="m37,46.36c1.49.37,3.7-.47,4.93-1.88,1.24-1.41,1.04-2.86-.45-3.23-1.49-.37-3.7.47-4.94,1.88-1.24,1.41-1.03,2.86.46,3.23Z"/>
            <path class="cls-5" d="m37.16,46.68c1.75.44,4.35-.55,5.81-2.21,1.46-1.66,1.22-3.37-.53-3.81-1.75-.44-4.36.55-5.82,2.22-1.46,1.66-1.22,3.36.54,3.8Z"/>
            <path class="cls-5" d="m7.37,40.55c2.08-.01,4.36-2.87,5.09-6.4.73-3.53-.37-6.39-2.46-6.38s-4.37,2.89-5.1,6.42c-.72,3.53.38,6.37,2.46,6.36Z"/>
            <path class="cls-5" d="m7.76,41.13c2.45-.01,5.14-3.38,6-7.54.86-4.16-.43-7.54-2.9-7.52s-5.15,3.41-6.01,7.57c-.85,4.15.45,7.5,2.9,7.49Z"/>
            <path class="cls-5" d="m39.04,16.49c2.1-.01,4.09-1.38,4.45-3.06.36-1.68-1.05-3.03-3.15-3.02-2.1.01-4.09,1.38-4.45,3.06-.36,1.68,1.06,3.03,3.15,3.02Z"/>
            <path class="cls-5" d="m39.5,16.76c2.47-.01,4.82-1.62,5.24-3.6.43-1.98-1.24-3.57-3.71-3.56-2.48.01-4.82,1.63-5.24,3.61-.42,1.97,1.24,3.56,3.71,3.55Z"/>
            <path class="cls-5" d="m26.48,26.66c2.1-.01,4.07-1.38,4.41-3.05.34-1.68-1.09-3.03-3.19-3.02-2.1.01-4.07,1.38-4.41,3.06-.33,1.68,1.09,3.02,3.19,3.01Z"/>
            <path class="cls-5" d="m26.94,26.93c2.47-.01,4.79-1.62,5.19-3.6.4-1.98-1.28-3.57-3.76-3.56-2.47.01-4.8,1.63-5.19,3.6-.39,1.97,1.29,3.56,3.76,3.55Z"/>
            <path class="cls-5" d="m17.92,13.04c1.92.58,4.65-.09,6.1-1.5,1.45-1.41,1.06-3.03-.86-3.61-1.92-.58-4.66.09-6.1,1.51-1.44,1.41-1.06,3.03.86,3.61Z"/>
            <path class="cls-5" d="m18.16,13.41c2.26.68,5.48-.11,7.18-1.77,1.71-1.66,1.25-3.57-1.01-4.25-2.27-.68-5.49.11-7.19,1.77-1.7,1.66-1.24,3.56,1.02,4.25Z"/>
            <path class="cls-5" d="m45.22,23.86c1.9.57,4.63-.09,6.09-1.49,1.46-1.4,1.11-2.99-.79-3.57-1.9-.57-4.63.09-6.1,1.49-1.46,1.4-1.1,2.99.8,3.57Z"/>
            <path class="cls-5" d="m45.45,24.23c2.24.68,5.45-.11,7.17-1.75,1.73-1.64,1.31-3.53-.93-4.2-2.24-.68-5.46.11-7.18,1.75-1.72,1.64-1.3,3.52.94,4.2Z"/>
            <path class="cls-5" d="m40.56,36.42c2.7-.83,3.68-4.04,2.18-7.18-1.5-3.15-4.91-5.03-7.62-4.2-2.7.83-3.67,4.06-2.17,7.2,1.5,3.14,4.91,5.01,7.61,4.18Z"/>
            <path class="cls-5" d="m41.47,36.72c3.18-.97,4.33-4.76,2.57-8.46-1.77-3.71-5.79-5.93-8.97-4.95-3.19.98-4.33,4.78-2.55,8.48,1.77,3.7,5.78,5.9,8.96,4.93Z"/>
            <path class="cls-5" d="m15.24,25.38c2.28-.26,3.57-2.73,2.89-5.51-.68-2.78-3.08-4.83-5.36-4.57-2.28.26-3.57,2.74-2.89,5.52.69,2.78,3.08,4.82,5.36,4.55Z"/>
            <path class="cls-5" d="m15.92,25.77c2.68-.31,4.21-3.21,3.41-6.48-.8-3.28-3.63-5.69-6.32-5.38-2.69.31-4.21,3.22-3.4,6.5.81,3.27,3.63,5.67,6.31,5.36Z"/>
            <path class="cls-5" d="m15.83,37.36c.97.31,2.55-.36,3.53-1.5.97-1.14.97-2.33,0-2.64-.98-.32-2.56.36-3.53,1.5-.97,1.14-.97,2.32,0,2.64Z"/>
            <path class="cls-5" d="m15.91,37.62c1.15.37,3.01-.42,4.15-1.76,1.15-1.35,1.15-2.74,0-3.11-1.15-.37-3.01.42-4.16,1.77-1.15,1.35-1.14,2.74,0,3.11Z"/>
            <path class="cls-5" d="m23.09,18.38c.97.33,2.1.21,2.52-.25.42-.46-.03-1.1-1.01-1.43-.97-.33-2.1-.21-2.52.25-.42.46.03,1.1,1.01,1.43Z"/>
            <path class="cls-5" d="m23.26,18.54c1.15.38,2.47.25,2.96-.29.49-.55-.04-1.3-1.18-1.68-1.15-.38-2.47-.25-2.96.29-.49.55.04,1.3,1.19,1.68Z"/>
            <path class="cls-5" d="m27.79,45.93c.98.33,2.11.22,2.53-.25.42-.47-.04-1.11-1.01-1.44-.98-.33-2.11-.22-2.53.25-.42.47.04,1.11,1.02,1.44Z"/>
            <path class="cls-5" d="m27.96,46.09c1.15.39,2.48.25,2.98-.3.49-.55-.04-1.31-1.19-1.7-1.15-.39-2.49-.25-2.98.3-.49.55.04,1.31,1.2,1.7Z"/>
            <path class="cls-5" d="m31.21,43.01c.97.32,2.08.21,2.5-.25.42-.46-.03-1.09-1-1.41-.97-.32-2.09-.21-2.5.25-.41.46.03,1.09,1,1.41Z"/>
            <path class="cls-5" d="m31.38,43.16c1.14.38,2.45.25,2.94-.29.49-.54-.04-1.28-1.17-1.66-1.14-.38-2.46-.25-2.95.29-.49.54.04,1.28,1.17,1.66Z"/>
            <path class="cls-5" d="m19.88,50.35c.98.32,2.57-.36,3.55-1.52.98-1.16.98-2.37,0-2.69-.98-.32-2.58.36-3.56,1.53-.98,1.16-.97,2.36.01,2.68Z"/>
            <path class="cls-5" d="m19.97,50.62c1.16.38,3.03-.43,4.18-1.8,1.15-1.37,1.15-2.79,0-3.16-1.16-.38-3.03.43-4.19,1.8-1.15,1.37-1.15,2.79.01,3.16Z"/>
            <path class="cls-5" d="m16.14,45.35c.99.32,2.58-.36,3.56-1.53.98-1.17.97-2.37-.01-2.69-.99-.32-2.58.36-3.56,1.53-.98,1.17-.97,2.37.01,2.69Z"/>
            <path class="cls-5" d="m16.22,45.62c1.16.38,3.03-.43,4.19-1.8,1.15-1.37,1.15-2.79-.01-3.17-1.16-.38-3.04.43-4.19,1.8-1.15,1.37-1.14,2.79.02,3.17Z"/>
          </g>
          <path class="cls-4" d="m42.04,5.52c1.08-1.73,6.67,3.34,5.12,3.6-1.54.25-6.54-1.32-5.12-3.6Z"/>
          <path class="cls-4" d="m45.94,10.35c.24-.93,3.37-.67,2.73-.14-.64.53-3.05,1.38-2.73.14Z"/>
          <path class="cls-3" d="m51.19,10.06c-9.81-12.21-31.07-14.34-43.77-.54,3.41-1.54,8.75-2.52,16.91-.77,17.64,3.78,31.99,34.27,13.08,42.79,21.8-5.68,22.7-30.36,13.78-41.47Z"/>
        </g>
      </g>
    </g>
  </g>
</svg>