<?xml version="1.0" encoding="UTF-8"?>
<svg xmlns="http://www.w3.org/2000/svg" xmlns:xlink="http://www.w3.org/1999/xlink" viewBox="0 0 131.6 133.68">
  <defs>
    <style>
      .cls-1 {
        fill: #fff;
      }

      .cls-2 {
        fill: #d90000;
      }

      .cls-3 {
        opacity: .89;
      }

      .cls-3, .cls-4, .cls-5, .cls-6 {
        mix-blend-mode: screen;
      }

      .cls-7 {
        isolation: isolate;
      }

      .cls-8 {
        fill: #ae0000;
      }

      .cls-4 {
        fill: #ef9c9c;
        opacity: .36;
      }

      .cls-5 {
        fill: url(#_Áåçûìÿííûé_ãðàäèåíò_176);
      }

      .cls-6 {
        fill: #fc5a3a;
      }

      .cls-9 {
        fill: #d10000;
      }

      .cls-10 {
        fill: #efe09c;
      }
    </style>
    <linearGradient id="_Áåçûìÿííûé_ãðàäèåíò_176" data-name="Áåçûìÿííûé ãðàäèåíò 176" x1="11.75" y1="-149.92" x2="-45.97" y2="-92.2" gradientTransform="translate(68.46 174.68) rotate(17.61)" gradientUnits="userSpaceOnUse">
      <stop offset="0" stop-color="#fe9c54"/>
      <stop offset=".02" stop-color="#f49650"/>
      <stop offset=".15" stop-color="#b46e3b"/>
      <stop offset=".29" stop-color="#7d4d29"/>
      <stop offset=".41" stop-color="#50311a"/>
      <stop offset=".54" stop-color="#2d1b0f"/>
      <stop offset=".65" stop-color="#140c06"/>
      <stop offset=".75" stop-color="#050301"/>
      <stop offset=".84" stop-color="#000"/>
    </linearGradient>
  </defs>
  <g class="cls-7">
    <g id="Layer_2" data-name="Layer 2">
      <g id="_Ñëîé_1" data-name="Ñëîé 1">
        <g>
          <path class="cls-8" d="m84.3,8.18c62.62,14.16,65.77,128.87-22.91,125.43C-27.29,130.17-20.1-15.42,84.3,8.18Z"/>
          <path class="cls-2" d="m86.07,2.59c62.62,14.16,65.77,128.87-22.91,125.43C-25.52,124.58-18.32-21.02,86.07,2.59Z"/>
          <path class="cls-6" d="m83.99,9.23c55.85,12.63,58.66,114.94-20.43,111.88C-15.54,118.05-9.12-11.82,83.99,9.23Z"/>
          <path class="cls-4" d="m105.7,33.64c15.15,20.32,1.84,30.27-14.69,32.05-2.16.23-2.7,3.12-.76,4.1,12.04,6.06,28.17,18.63,2.94,35.46-23.7,15.81-31.36-6.77-31.47-24.31-.01-2.18-2.79-3.02-4.01-1.21-7.15,10.6-21.3,26.01-34.24,7.03-11.62-17.05,4.1-24.67,16.52-27.92,2.16-.56,2.18-3.65.02-4.21-10.65-2.79-22.9-9.37-13.18-24.67,13.31-20.95,38.08-12.07,40.24,7.1.24,2.1,2.91,2.75,4.03.96,6.8-10.92,19.67-24.41,34.6-4.38Z"/>
          <path class="cls-9" d="m83.26,43.33s-7.67,5.95,7.41,9c0,0-7.97,15.17,4.23,12.76,14.58-2.86,24.74-12.76,10.8-31.45-12.98-17.4-24.39-9.5-31.62.04-6.55,11.44,9.18,9.65,9.18,9.65Z"/>
          <path class="cls-9" d="m43.17,76.71s3.38-4.71-1.67-7.04c0,0,5.37-13.2-5.03-9.8-11.58,3.72-23.55,11.42-13,26.89,10.56,15.48,21.92,8.08,29.63-.93,7.37-8.97-9.93-9.12-9.93-9.12Z"/>
          <path class="cls-9" d="m96.8,73.63c-8.65-5.18-8.84,5.88-8.84,5.88,0,0-6.9-4.21-12.61-4-5.71.21-7.17,10.3-7.17,10.3,0,0-7.28-8.29-5.91,2.87,2.1,15.49,10.63,30.11,30.93,16.57,20.75-13.84,13.52-24.79,3.61-31.62Z"/>
          <path class="cls-9" d="m40.08,43.64s8.92,8.33,15.63,4.96c6.71-3.36,3.38-13.82,3.38-13.82,0,0,8.67,8.86,7.76,1.11-3.03-18.34-26.99-26.45-40.02-5.94-8.42,13.24-.37,19.95,8.85,23.32,10.44,3.91,4.41-9.64,4.41-9.64Z"/>
          <g class="cls-3">
            <path class="cls-10" d="m55.76,31.13s-1.75-9.95-5.58-6.54c-3.83,3.41,5.58,6.54,5.58,6.54Z"/>
            <path class="cls-10" d="m44.63,29.75s-5.37-8.56-7.64-3.96c-2.27,4.6,7.64,3.96,7.64,3.96Z"/>
            <path class="cls-10" d="m44.47,39.82s.04-5.98-2.61-4.49c-2.65,1.49,2.61,4.49,2.61,4.49Z"/>
            <path class="cls-10" d="m59.57,31.9s1.58-5.81-1.35-4.94c-2.93.87,1.35,4.94,1.35,4.94Z"/>
            <path class="cls-10" d="m37.71,37.45s-.44-10.1-4.68-7.21c-4.24,2.88,4.68,7.21,4.68,7.21Z"/>
            <path class="cls-10" d="m38.53,41.9s-5.37-8.56-7.64-3.96c-2.27,4.6,7.64,3.96,7.64,3.96Z"/>
          </g>
          <g class="cls-3">
            <path class="cls-10" d="m85.8,37.19s5.55-8.44,7.72-3.8c2.17,4.65-7.72,3.8-7.72,3.8Z"/>
            <path class="cls-10" d="m96.57,40.33s8.32-5.73,8.58-.61c.26,5.12-8.58.61-8.58.61Z"/>
            <path class="cls-10" d="m92.73,49.65s2.33-5.51,4.17-3.09-4.17,3.09-4.17,3.09Z"/>
            <path class="cls-10" d="m82.01,36.39s.85-5.96,3.2-4c2.35,1.96-3.2,4-3.2,4Z"/>
            <path class="cls-10" d="m99.87,50.14s4.41-9.1,7.16-4.77c2.75,4.33-7.16,4.77-7.16,4.77Z"/>
            <path class="cls-10" d="m97.36,53.91s8.32-5.73,8.58-.61c.26,5.12-8.58.61-8.58.61Z"/>
          </g>
          <g class="cls-3">
            <path class="cls-10" d="m73.46,91.81s1.91,9.93,5.68,6.46c3.78-3.47-5.68-6.46-5.68-6.46Z"/>
            <path class="cls-10" d="m84.61,93.02s5.5,8.48,7.69,3.85c2.19-4.63-7.69-3.85-7.69-3.85Z"/>
            <path class="cls-10" d="m84.62,82.94s.05,5.98,2.68,4.45c2.63-1.53-2.68-4.45-2.68-4.45Z"/>
            <path class="cls-10" d="m69.64,91.1s-1.49,5.83,1.43,4.92c2.92-.91-1.43-4.92-1.43-4.92Z"/>
            <path class="cls-10" d="m91.41,85.21s.6,10.09,4.79,7.14c4.2-2.95-4.79-7.14-4.79-7.14Z"/>
            <path class="cls-10" d="m90.53,80.77s5.5,8.48,7.69,3.85c2.2-4.63-7.69-3.85-7.69-3.85Z"/>
          </g>
          <g class="cls-3">
            <path class="cls-10" d="m44.75,83.84s-.31,10.1-4.59,7.28c-4.28-2.82,4.59-7.28,4.59-7.28Z"/>
            <path class="cls-10" d="m35.57,81.72s-6.97,7.32-8.27,2.36c-1.3-4.96,8.27-2.36,8.27-2.36Z"/>
            <path class="cls-10" d="m39.52,73.23s-2.25,5.54-4.13,3.15c-1.88-2.39,4.13-3.15,4.13-3.15Z"/>
            <path class="cls-10" d="m32.37,72.84s-4.27,9.16-7.09,4.88c-2.82-4.28,7.09-4.88,7.09-4.88Z"/>
            <path class="cls-10" d="m34.82,69.04s-8.23,5.86-8.57.74c-.33-5.12,8.57-.74,8.57-.74Z"/>
          </g>
          <path class="cls-5" d="m86.07,2.59C72.85-.4,61.19-.67,51.08,1.14c43.73-6.15,62.02,75.61,58.18,98.31-2.3,13.61-17.15,22.55-28.69,27.54,70.48-11.33,63.69-111.25,5.5-124.4Z"/>
          <path class="cls-1" d="m118.75,35.96c1.64,1.57,1.56,6.82-.29,4.86-1.84-1.94-1.34-6.42.29-4.86Z"/>
        </g>
      </g>
    </g>
  </g>
</svg>