<?xml version="1.0" encoding="UTF-8"?>
<svg xmlns="http://www.w3.org/2000/svg" xmlns:xlink="http://www.w3.org/1999/xlink" viewBox="0 0 110.59 109.98">
  <defs>
    <style>
      .cls-1 {
        fill: url(#_Áåçûìÿííûé_ãðàäèåíò_1761-22);
      }

      .cls-1, .cls-2, .cls-3, .cls-4, .cls-5, .cls-6, .cls-7, .cls-8, .cls-9, .cls-10, .cls-11, .cls-12, .cls-13, .cls-14, .cls-15, .cls-16, .cls-17, .cls-18, .cls-19, .cls-20, .cls-21, .cls-22, .cls-23, .cls-24, .cls-25, .cls-26 {
        mix-blend-mode: screen;
      }

      .cls-2 {
        fill: url(#_Áåçûìÿííûé_ãðàäèåíò_1761-20);
      }

      .cls-3 {
        fill: url(#_Áåçûìÿííûé_ãðàäèåíò_1761-6);
      }

      .cls-4 {
        fill: url(#_Áåçûìÿííûé_ãðàäèåíò_1761-4);
      }

      .cls-27 {
        fill: url(#_Áåçûìÿííûé_ãðàäèåíò_1761);
      }

      .cls-5 {
        fill: url(#_Áåçûìÿííûé_ãðàäèåíò_1761-18);
      }

      .cls-6 {
        fill: url(#_Áåçûìÿííûé_ãðàäèåíò_1761-15);
      }

      .cls-28 {
        isolation: isolate;
      }

      .cls-7 {
        fill: url(#_Áåçûìÿííûé_ãðàäèåíò_1761-10);
      }

      .cls-8 {
        fill: url(#_Áåçûìÿííûé_ãðàäèåíò_1761-3);
      }

      .cls-9 {
        fill: url(#_Áåçûìÿííûé_ãðàäèåíò_1761-21);
      }

      .cls-10 {
        fill: url(#_Áåçûìÿííûé_ãðàäèåíò_1761-19);
      }

      .cls-11 {
        fill: url(#_Áåçûìÿííûé_ãðàäèåíò_1761-17);
      }

      .cls-12 {
        fill: url(#_Áåçûìÿííûé_ãðàäèåíò_1761-11);
      }

      .cls-13 {
        fill: url(#_Áåçûìÿííûé_ãðàäèåíò_1761-12);
      }

      .cls-14 {
        fill: url(#_Áåçûìÿííûé_ãðàäèåíò_1761-25);
      }

      .cls-15 {
        fill: url(#_Áåçûìÿííûé_ãðàäèåíò_1761-8);
      }

      .cls-16 {
        fill: url(#_Áåçûìÿííûé_ãðàäèåíò_226);
        opacity: .69;
      }

      .cls-17 {
        fill: #ffffbc;
      }

      .cls-29 {
        fill: #a2a537;
        mix-blend-mode: multiply;
        opacity: .48;
      }

      .cls-18 {
        fill: url(#_Áåçûìÿííûé_ãðàäèåíò_1761-13);
      }

      .cls-19 {
        fill: url(#_Áåçûìÿííûé_ãðàäèåíò_1761-2);
      }

      .cls-20 {
        fill: url(#_Áåçûìÿííûé_ãðàäèåíò_1761-7);
      }

      .cls-21 {
        fill: url(#_Áåçûìÿííûé_ãðàäèåíò_1761-14);
      }

      .cls-22 {
        fill: url(#_Áåçûìÿííûé_ãðàäèåíò_1761-9);
      }

      .cls-23 {
        fill: url(#_Áåçûìÿííûé_ãðàäèåíò_1761-23);
      }

      .cls-24 {
        fill: url(#_Áåçûìÿííûé_ãðàäèåíò_1761-16);
      }

      .cls-25 {
        fill: url(#_Áåçûìÿííûé_ãðàäèåíò_1761-24);
      }

      .cls-30 {
        fill: url(#_Áåçûìÿííûé_ãðàäèåíò_185);
      }

      .cls-26 {
        fill: url(#_Áåçûìÿííûé_ãðàäèåíò_1761-5);
      }
    </style>
    <linearGradient id="_Áåçûìÿííûé_ãðàäèåíò_185" data-name="Áåçûìÿííûé ãðàäèåíò 185" x1="89.49" y1="101.49" x2="28.33" y2="44.28" gradientUnits="userSpaceOnUse">
      <stop offset=".38" stop-color="#46490b"/>
      <stop offset=".61" stop-color="#484b0b"/>
      <stop offset=".75" stop-color="#4f540f"/>
      <stop offset=".87" stop-color="#5c6214"/>
      <stop offset=".98" stop-color="#6e771c"/>
      <stop offset="1" stop-color="#737c1e"/>
    </linearGradient>
    <linearGradient id="_Áåçûìÿííûé_ãðàäèåíò_1761" data-name="Áåçûìÿííûé ãðàäèåíò 1761" x1="88.39" y1="36.01" x2="27.37" y2="97.03" gradientUnits="userSpaceOnUse">
      <stop offset="0" stop-color="#a2a537"/>
      <stop offset="1" stop-color="#737c1e"/>
    </linearGradient>
    <linearGradient id="_Áåçûìÿííûé_ãðàäèåíò_1761-2" data-name="Áåçûìÿííûé ãðàäèåíò 1761" x1="85.5" y1="37.43" x2="29.81" y2="93.12" xlink:href="#_Áåçûìÿííûé_ãðàäèåíò_1761"/>
    <linearGradient id="_Áåçûìÿííûé_ãðàäèåíò_1761-3" data-name="Áåçûìÿííûé ãðàäèåíò 1761" x1="54.82" y1="45.73" x2="61.17" y2="45.73" xlink:href="#_Áåçûìÿííûé_ãðàäèåíò_1761"/>
    <linearGradient id="_Áåçûìÿííûé_ãðàäèåíò_1761-4" data-name="Áåçûìÿííûé ãðàäèåíò 1761" x1="332.22" y1="-226.27" x2="338.58" y2="-226.27" gradientTransform="translate(156.05 418.1) rotate(-71.39)" xlink:href="#_Áåçûìÿííûé_ãðàäèåíò_1761"/>
    <linearGradient id="_Áåçûìÿííûé_ãðàäèåíò_1761-5" data-name="Áåçûìÿííûé ãðàäèåíò 1761" x1="327.11" y1="-208.68" x2="331.43" y2="-208.68" gradientTransform="translate(156.05 418.1) rotate(-71.39)" xlink:href="#_Áåçûìÿííûé_ãðàäèåíò_1761"/>
    <linearGradient id="_Áåçûìÿííûé_ãðàäèåíò_1761-6" data-name="Áåçûìÿííûé ãðàäèåíò 1761" x1="67.81" y1="2.06" x2="72.13" y2="2.06" gradientTransform="translate(-10.2 27.13) rotate(-4.92)" xlink:href="#_Áåçûìÿííûé_ãðàäèåíò_1761"/>
    <linearGradient id="_Áåçûìÿííûé_ãðàäèåíò_1761-7" data-name="Áåçûìÿííûé ãðàäèåíò 1761" x1="50.85" y1="100.22" x2="55.18" y2="100.22" gradientTransform="translate(22.73 -69.06) rotate(10.18)" xlink:href="#_Áåçûìÿííûé_ãðàäèåíò_1761"/>
    <linearGradient id="_Áåçûìÿííûé_ãðàäèåíò_1761-8" data-name="Áåçûìÿííûé ãðàäèåíò 1761" x1="551.58" y1="-167.9" x2="555.91" y2="-167.9" gradientTransform="translate(407.74 476.91) rotate(-112.23)" xlink:href="#_Áåçûìÿííûé_ãðàäèåíò_1761"/>
    <linearGradient id="_Áåçûìÿííûé_ãðàäèåíò_1761-9" data-name="Áåçûìÿííûé ãðàäèåíò 1761" x1="672.13" y1="52" x2="678.49" y2="52" gradientTransform="translate(667.99 345.54) rotate(-156.67)" xlink:href="#_Áåçûìÿííûé_ãðàäèåíò_1761"/>
    <linearGradient id="_Áåçûìÿííûé_ãðàäèåíò_1761-10" data-name="Áåçûìÿííûé ãðàäèåíò 1761" x1="562.62" y1="376.32" x2="568.97" y2="376.32" gradientTransform="translate(734.32 -64.76) rotate(135.41)" xlink:href="#_Áåçûìÿííûé_ãðàäèåíò_1761"/>
    <linearGradient id="_Áåçûìÿííûé_ãðàäèåíò_1761-11" data-name="Áåçûìÿííûé ãðàäèåíò 1761" x1="434.4" y1="419.86" x2="440.75" y2="419.86" gradientTransform="translate(622.79 -187.76) rotate(110.54)" xlink:href="#_Áåçûìÿííûé_ãðàäèåíò_1761"/>
    <linearGradient id="_Áåçûìÿííûé_ãðàäèåíò_1761-12" data-name="Áåçûìÿííûé ãðàäèåíò 1761" x1="175.97" y1="377.93" x2="180.29" y2="377.93" gradientTransform="translate(329.5 -253.02) rotate(64.02)" xlink:href="#_Áåçûìÿííûé_ãðàäèåíò_1761"/>
    <linearGradient id="_Áåçûìÿííûé_ãðàäèåíò_1761-13" data-name="Áåçûìÿííûé ãðàäèåíò 1761" x1="321.57" y1="417.05" x2="325.9" y2="417.05" gradientTransform="translate(504.11 -246.22) rotate(90.26)" xlink:href="#_Áåçûìÿííûé_ãðàäèåíò_1761"/>
    <linearGradient id="_Áåçûìÿííûé_ãðàäèåíò_1761-14" data-name="Áåçûìÿííûé ãðàäèåíò 1761" x1="544.29" y1="374.11" x2="548.62" y2="374.11" gradientTransform="translate(721.22 -91.04) rotate(130.49)" xlink:href="#_Áåçûìÿííûé_ãðàäèåíò_1761"/>
    <linearGradient id="_Áåçûìÿííûé_ãðàäèåíò_1761-15" data-name="Áåçûìÿííûé ãðàäèåíò 1761" x1="54.03" y1="176.45" x2="58.35" y2="176.45" gradientTransform="translate(108.41 -117.78) rotate(23.18)" xlink:href="#_Áåçûìÿííûé_ãðàäèåíò_1761"/>
    <linearGradient id="_Áåçûìÿííûé_ãðàäèåíò_1761-16" data-name="Áåçûìÿííûé ãðàäèåíò 1761" x1="33.81" y1="127.72" x2="40.16" y2="127.72" gradientTransform="translate(70.71 -71.81) rotate(14.92)" xlink:href="#_Áåçûìÿííûé_ãðàäèåíò_1761"/>
    <linearGradient id="_Áåçûìÿííûé_ãðàäèåíò_1761-17" data-name="Áåçûìÿííûé ãðàäèåíò 1761" x1="75.52" y1="-50.43" x2="81.88" y2="-50.43" gradientTransform="translate(15.5 158.34) rotate(-21.25)" xlink:href="#_Áåçûìÿííûé_ãðàäèåíò_1761"/>
    <linearGradient id="_Áåçûìÿííûé_ãðàäèåíò_1761-18" data-name="Áåçûìÿííûé ãðàäèåíò 1761" x1="197.66" y1="419.71" x2="204.02" y2="419.71" gradientTransform="translate(336.33 -282.85) rotate(66.01)" xlink:href="#_Áåçûìÿííûé_ãðàäèåíò_1761"/>
    <linearGradient id="_Áåçûìÿííûé_ãðàäèåíò_1761-19" data-name="Áåçûìÿííûé ãðàäèåíò 1761" x1="6.31" y1="29.72" x2="12.67" y2="29.72" gradientTransform="translate(19.45 32.96) rotate(-5.74)" xlink:href="#_Áåçûìÿííûé_ãðàäèåíò_1761"/>
    <linearGradient id="_Áåçûìÿííûé_ãðàäèåíò_1761-20" data-name="Áåçûìÿííûé ãðàäèåíò 1761" x1="13.2" y1="205.91" x2="17.53" y2="205.91" gradientTransform="translate(81.45 -123.56) rotate(19.48)" xlink:href="#_Áåçûìÿííûé_ãðàäèåíò_1761"/>
    <linearGradient id="_Áåçûìÿííûé_ãðàäèåíò_1761-21" data-name="Áåçûìÿííûé ãðàäèåíò 1761" x1="98.65" y1="334.61" x2="102.98" y2="334.61" gradientTransform="translate(211.22 -240.49) rotate(45.72)" xlink:href="#_Áåçûìÿííûé_ãðàäèåíò_1761"/>
    <linearGradient id="_Áåçûìÿííûé_ãðàäèåíò_1761-22" data-name="Áåçûìÿííûé ãðàäèåíò 1761" x1="322.32" y1="455.41" x2="326.65" y2="455.41" gradientTransform="translate(474.96 -283.57) rotate(85.95)" xlink:href="#_Áåçûìÿííûé_ãðàäèåíò_1761"/>
    <linearGradient id="_Áåçûìÿííûé_ãðàäèåíò_1761-23" data-name="Áåçûìÿííûé ãðàäèåíò 1761" x1="47.57" y1="-45.88" x2="51.89" y2="-45.88" gradientTransform="translate(18.14 127.4) rotate(-21.35)" xlink:href="#_Áåçûìÿííûé_ãðàäèåíò_1761"/>
    <linearGradient id="_Áåçûìÿííûé_ãðàäèåíò_1761-24" data-name="Áåçûìÿííûé ãðàäèåíò 1761" x1="56.54" y1="-108.42" x2="62.89" y2="-108.42" gradientTransform="translate(24.93 187.19) rotate(-29.62)" xlink:href="#_Áåçûìÿííûé_ãðàäèåíò_1761"/>
    <linearGradient id="_Áåçûìÿííûé_ãðàäèåíò_1761-25" data-name="Áåçûìÿííûé ãðàäèåíò 1761" x1="234.07" y1="-227.31" x2="240.43" y2="-227.31" gradientTransform="translate(146.35 390.57) rotate(-65.79)" xlink:href="#_Áåçûìÿííûé_ãðàäèåíò_1761"/>
    <linearGradient id="_Áåçûìÿííûé_ãðàäèåíò_226" data-name="Áåçûìÿííûé ãðàäèåíò 226" x1="96.56" y1="27.84" x2="50.01" y2="74.39" gradientUnits="userSpaceOnUse">
      <stop offset="0" stop-color="#cece2e"/>
      <stop offset=".06" stop-color="#b8b829"/>
      <stop offset=".24" stop-color="#80801c"/>
      <stop offset=".42" stop-color="#525212"/>
      <stop offset=".58" stop-color="#2e2e0a"/>
      <stop offset=".73" stop-color="#151504"/>
      <stop offset=".87" stop-color="#050501"/>
      <stop offset=".98" stop-color="#000"/>
    </linearGradient>
  </defs>
  <g class="cls-28">
    <g id="Layer_2" data-name="Layer 2">
      <g id="_Ñëîé_1" data-name="Ñëîé 1">
        <g>
          <path class="cls-30" d="m56.95,5.81c16.65-2.51,26.39,12.51,29.91,34.5,3.52,21.99,33.87,33.05,20.23,57.65-13.64,24.6-48.82,2.7-73.01,9.25-24.19,6.55-51.36-20.37-19.79-49.41C37.59,36.36,26.16,10.46,56.95,5.81Z"/>
          <path class="cls-27" d="m56.95.27c16.65-2.51,26.39,12.51,29.91,34.5,3.52,21.99,33.87,33.05,20.23,57.65-13.64,24.6-48.82,2.7-73.01,9.25-24.19,6.55-51.36-20.37-19.79-49.41C37.59,30.82,26.16,4.92,56.95.27Z"/>
          <path class="cls-19" d="m56.8,4.81c15.19-2.29,24.09,11.42,27.3,31.49,3.21,20.07,30.91,30.17,18.47,52.62-12.44,22.45-44.56,2.46-66.64,8.44-22.08,5.98-46.87-18.6-18.07-45.1C39.14,32.68,28.7,9.05,56.8,4.81Z"/>
          <path class="cls-29" d="m57.22,52.22c6.44-.17,37.64-34.21-.82-34.27-36.78-.06-12.04,34.6.82,34.27Z"/>
          <path class="cls-29" d="m52.89,57.46c7.65,7.69-3.02,52.95-31.06,21.28-28.04-31.67,22.87-29.52,31.06-21.28Z"/>
          <path class="cls-29" d="m64.15,54.07c6.93-4.42,51.96,8.91,26.72,30.18-34.14,28.78-35.15-24.81-26.72-30.18Z"/>
          <g>
            <path class="cls-8" d="m55.69,49.3c2.93.82,7.22-5.94,4.75-7.09-2.47-1.15-7.68,6.27-4.75,7.09Z"/>
            <path class="cls-4" d="m51.29,31.36c1.72-2.52-3.32-8.74-5.21-6.76-1.88,1.98,3.49,9.28,5.21,6.76Z"/>
            <path class="cls-26" d="m65.15,41.72c1.17-1.71-2.26-5.94-3.54-4.6-1.28,1.34,2.37,6.31,3.54,4.6Z"/>
            <path class="cls-3" d="m58.33,25.74c2.04.39,4.55-4.45,2.8-5.08s-4.84,4.7-2.8,5.08Z"/>
            <path class="cls-20" d="m55.21,41.07c1.86.9,5.55-3.11,4.03-4.18-1.52-1.07-5.89,3.27-4.03,4.18Z"/>
            <path class="cls-15" d="m45.68,28.36c-.24-2.06-5.6-3.02-5.69-1.16s5.92,3.22,5.69,1.16Z"/>
            <path class="cls-22" d="m72.05,27.94c-2.36-1.92-8.98,2.59-7.17,4.63,1.81,2.04,9.53-2.71,7.17-4.63Z"/>
          </g>
          <g>
            <path class="cls-7" d="m66.37,60.28c-2.67,1.47-.97,9.3,1.6,8.38,2.57-.91,1.07-9.85-1.6-8.38Z"/>
            <path class="cls-12" d="m73.55,71.24c-1.8,2.46,3.03,8.84,4.98,6.93,1.95-1.91-3.17-9.39-4.98-6.93Z"/>
            <path class="cls-13" d="m64.95,72.32c.37,2.04,5.78,2.65,5.75.79-.03-1.86-6.12-2.83-5.75-.79Z"/>
            <path class="cls-18" d="m83.18,74.06c-.57,1.99,4.02,4.93,4.81,3.25.79-1.68-4.24-5.24-4.81-3.25Z"/>
            <path class="cls-21" d="m81.03,78.91c-1.72,1.15-.12,6.36,1.57,5.59,1.69-.77.15-6.74-1.57-5.59Z"/>
            <path class="cls-6" d="m88.2,68.16c1.61,1.3,6.11-1.78,4.87-3.16-1.24-1.38-6.48,1.86-4.87,3.16Z"/>
            <path class="cls-24" d="m70.41,63.99c2.62,1.55,8.51-3.88,6.41-5.63-2.09-1.75-9.03,4.08-6.41,5.63Z"/>
            <path class="cls-11" d="m69.71,86.98c3.03-.29,4.58-8.15,1.85-8.33-2.72-.18-4.88,8.62-1.85,8.33Z"/>
          </g>
          <g>
            <path class="cls-5" d="m30.35,70.64c.44,3.01,8.36,4.18,8.41,1.45.05-2.73-8.85-4.47-8.41-1.45Z"/>
            <path class="cls-10" d="m29.92,65.36c3,.53,6.59-6.63,4.01-7.53-2.58-.9-7.01,7-4.01,7.53Z"/>
            <path class="cls-2" d="m24.98,77.44c1.69,1.19,5.98-2.17,4.65-3.47-1.32-1.3-6.35,2.28-4.65,3.47Z"/>
            <path class="cls-9" d="m39.19,65.9c.99,1.82,6.32.7,5.71-1.06-.61-1.75-6.7-.76-5.71,1.06Z"/>
            <path class="cls-1" d="m41.06,70.86c-.42,2.03,4.38,4.61,5.04,2.88.66-1.73-4.62-4.91-5.04-2.88Z"/>
            <path class="cls-23" d="m47.17,69.4c2.06-.2,3.1-5.55,1.25-5.67-1.85-.12-3.31,5.87-1.25,5.67Z"/>
            <path class="cls-25" d="m23.02,67.67c2.96-.73,3.34-8.73.62-8.51-2.72.22-3.58,9.24-.62,8.51Z"/>
            <path class="cls-14" d="m38.65,84.55c1.95-2.34-2.45-9.02-4.52-7.24s2.57,9.57,4.52,7.24Z"/>
          </g>
          <path class="cls-16" d="m107.09,92.43c13.63-24.6-16.71-35.66-20.23-57.65C83.34,12.78,73.59-2.24,56.95.27c-22.78,3.44-22.45,18.5-30.18,34.8,20.19-31.95,64.69,39.69,68.77,55.38,2.75,10.57-8.17,13.24-15.61,13.86,11.33.69,21.26-1.24,27.15-11.88Z"/>
          <path class="cls-17" d="m74.68,20.35c-2.98,4.11-4.7-7.32-2.42-7.55,2.28-.23,4.51,4.68,2.42,7.55Z"/>
          <path class="cls-17" d="m70.93,11.53c-.57,1.15-4.37-.61-3.69-2.21.68-1.6,4.25,1.05,3.69,2.21Z"/>
        </g>
      </g>
    </g>
  </g>
</svg>