<?xml version="1.0" encoding="UTF-8"?>
<svg xmlns="http://www.w3.org/2000/svg" xmlns:xlink="http://www.w3.org/1999/xlink" viewBox="0 0 137.34 125.34">
  <defs>
    <style>
      .cls-1 {
        fill: #a92e10;
      }

      .cls-2 {
        isolation: isolate;
      }

      .cls-3 {
        fill: url(#_Áåçûìÿííûé_ãðàäèåíò_58);
      }

      .cls-4 {
        fill: url(#_Áåçûìÿííûé_ãðàäèåíò_338);
      }

      .cls-4, .cls-5, .cls-6 {
        mix-blend-mode: screen;
      }

      .cls-5 {
        fill: #fff;
        opacity: .9;
      }

      .cls-6 {
        fill: #ff7373;
        opacity: .53;
      }

      .cls-7 {
        opacity: .71;
      }
    </style>
    <linearGradient id="_Áåçûìÿííûé_ãðàäèåíò_58" data-name="Áåçûìÿííûé ãðàäèåíò 58" x1="19.82" y1="15.62" x2="114.65" y2="110.45" gradientUnits="userSpaceOnUse">
      <stop offset="0" stop-color="#d32e10"/>
      <stop offset=".17" stop-color="#d53115"/>
      <stop offset=".39" stop-color="#dc3c24"/>
      <stop offset=".63" stop-color="#e74e3e"/>
      <stop offset=".89" stop-color="#f76661"/>
      <stop offset="1" stop-color="#ff7373"/>
    </linearGradient>
    <linearGradient id="_Áåçûìÿííûé_ãðàäèåíò_338" data-name="Áåçûìÿííûé ãðàäèåíò 338" x1="42.89" y1="38.35" x2="120.7" y2="116.16" gradientUnits="userSpaceOnUse">
      <stop offset=".26" stop-color="#000"/>
      <stop offset=".33" stop-color="#060303"/>
      <stop offset=".42" stop-color="#190b0b"/>
      <stop offset=".53" stop-color="#391919"/>
      <stop offset=".66" stop-color="#642d2d"/>
      <stop offset=".79" stop-color="#9c4646"/>
      <stop offset=".94" stop-color="#df6565"/>
      <stop offset="1" stop-color="#ff7373"/>
    </linearGradient>
  </defs>
  <g class="cls-2">
    <g id="Layer_2" data-name="Layer 2">
      <g id="_Ñëîé_1" data-name="Ñëîé 1">
        <g>
          <path class="cls-1" d="m137.12,69.76c4.17,52.98-84.27,74.57-121.49,35.85C-22.03,66.43,13.11-9.43,73.4,5.39c60.04,14.76,62.45,48.13,63.73,64.37Z"/>
          <path class="cls-3" d="m137.19,66.4c4.17,53.09-84.36,74.72-121.61,35.93C-22.12,63.07,13.05-12.95,73.4,1.9c60.1,14.79,62.51,48.22,63.79,64.5Z"/>
          <g class="cls-7">
            <path class="cls-6" d="m23.91,93.81c1.63-1.02,1.78-3.99.32-6.64-1.46-2.65-3.97-3.97-5.6-2.95-1.64,1.02-1.78,4-.32,6.64,1.46,2.65,3.96,3.96,5.6,2.95Z"/>
            <path class="cls-6" d="m24.55,93.99c1.92-1.2,2.1-4.7.38-7.82-1.72-3.12-4.67-4.68-6.6-3.48-1.93,1.2-2.09,4.71-.38,7.83,1.72,3.12,4.67,4.67,6.59,3.47Z"/>
            <path class="cls-6" d="m106.84,34.33c1.66-1.04,1.85-4.07.42-6.76-1.44-2.7-3.95-4.05-5.62-3.01-1.67,1.04-1.85,4.07-.41,6.77,1.44,2.7,3.95,4.04,5.61,3Z"/>
            <path class="cls-6" d="m107.48,34.52c1.96-1.22,2.18-4.79.49-7.97-1.69-3.18-4.66-4.77-6.62-3.54-1.96,1.23-2.18,4.8-.48,7.98,1.69,3.17,4.65,4.76,6.61,3.53Z"/>
            <path class="cls-6" d="m107.7,100.51c1.87.67,4.63-.85,6.19-3.39,1.55-2.55,1.3-5.16-.57-5.84-1.87-.67-4.64.85-6.19,3.4-1.55,2.55-1.29,5.16.57,5.83Z"/>
            <path class="cls-6" d="m107.91,101.09c2.2.79,5.46-1,7.29-3.99,1.83-3,1.53-6.08-.67-6.88-2.2-.79-5.47,1-7.29,4-1.83,3-1.52,6.08.67,6.87Z"/>
            <path class="cls-6" d="m70.55,90.03c2.61-.02,5.47-5.19,6.39-11.56.92-6.38-.46-11.55-3.08-11.53-2.62.02-5.48,5.22-6.39,11.6-.91,6.37.48,11.51,3.09,11.49Z"/>
            <path class="cls-6" d="m71.05,91.06c3.08-.02,6.44-6.11,7.52-13.62,1.08-7.52-.54-13.62-3.63-13.59-3.09.02-6.46,6.15-7.53,13.68-1.07,7.5.56,13.56,3.64,13.53Z"/>
            <path class="cls-6" d="m51.29,47.79c2.63-.02,5.1-2.49,5.53-5.52.42-3.03-1.37-5.47-4-5.45-2.63.02-5.11,2.5-5.53,5.53-.42,3.03,1.37,5.46,4,5.44Z"/>
            <path class="cls-6" d="m51.87,48.28c3.1-.02,6.01-2.93,6.51-6.5.5-3.57-1.61-6.45-4.71-6.42-3.1.02-6.02,2.94-6.51,6.51-.49,3.57,1.62,6.44,4.71,6.41Z"/>
            <path class="cls-6" d="m110.26,46.55c2.63-.02,5.13-2.49,5.58-5.52.45-3.03-1.32-5.48-3.95-5.46-2.64.02-5.13,2.5-5.58,5.53-.45,3.03,1.32,5.47,3.95,5.45Z"/>
            <path class="cls-6" d="m110.84,47.03c3.1-.02,6.04-2.93,6.57-6.5.53-3.57-1.55-6.45-4.66-6.43-3.1.02-6.05,2.94-6.57,6.51-.53,3.57,1.56,6.44,4.66,6.42Z"/>
            <path class="cls-6" d="m40.56,23.18c2.41,1.05,5.83-.17,7.65-2.72,1.82-2.55,1.33-5.47-1.08-6.52-2.41-1.05-5.84.17-7.65,2.72-1.81,2.55-1.33,5.47,1.08,6.51Z"/>
            <path class="cls-6" d="m40.86,23.86c2.84,1.23,6.87-.2,9-3.2,2.14-3,1.57-6.44-1.27-7.68-2.84-1.24-6.88.2-9.01,3.21-2.13,3-1.56,6.44,1.28,7.67Z"/>
            <path class="cls-6" d="m118.01,59.86c2.38,1.04,5.8-.16,7.64-2.68,1.84-2.52,1.39-5.41-.99-6.45-2.39-1.04-5.81.17-7.65,2.69-1.83,2.52-1.38,5.41,1,6.44Z"/>
            <path class="cls-6" d="m118.3,60.53c2.81,1.22,6.83-.19,9-3.16,2.16-2.97,1.64-6.37-1.17-7.59-2.81-1.22-6.84.2-9.01,3.17-2.16,2.97-1.63,6.37,1.18,7.59Z"/>
            <path class="cls-6" d="m59.06,99.42c1.81-.01,3.62-2.44,4.04-5.42.42-2.98-.7-5.39-2.51-5.38-1.81.01-3.62,2.44-4.04,5.43-.42,2.98.71,5.38,2.51,5.37Z"/>
            <path class="cls-6" d="m59.44,99.9c2.13-.02,4.26-2.87,4.76-6.38.5-3.51-.83-6.35-2.96-6.34-2.13.02-4.26,2.88-4.76,6.39-.49,3.51.83,6.34,2.96,6.32Z"/>
            <path class="cls-6" d="m19.46,73.26c1.75-.77,2.18-4.37.97-8.04-1.22-3.68-3.62-6.03-5.38-5.26-1.75.77-2.18,4.38-.96,8.05,1.22,3.67,3.62,6.01,5.37,5.24Z"/>
            <path class="cls-6" d="m20.09,73.67c2.06-.91,2.57-5.15,1.14-9.47-1.43-4.33-4.27-7.1-6.33-6.19-2.06.91-2.57,5.16-1.14,9.49,1.43,4.32,4.26,7.08,6.32,6.17Z"/>
            <path class="cls-6" d="m35.31,78.22c3.93-.3,7.45-5.28,7.85-11.15.41-5.88-2.46-10.4-6.41-10.11-3.95.3-7.46,5.31-7.85,11.18-.39,5.86,2.48,10.37,6.41,10.07Z"/>
            <path class="cls-6" d="m36.22,79.11c4.63-.35,8.77-6.22,9.25-13.13.48-6.92-2.9-12.26-7.55-11.91-4.65.35-8.79,6.26-9.25,13.18-.46,6.9,2.92,12.21,7.55,11.86Z"/>
            <path class="cls-6" d="m43.95,100.94c3.75-.13,7.32-4.96,7.97-10.8.65-5.85-1.87-10.48-5.63-10.35-3.76.13-7.33,4.99-7.97,10.83-.64,5.83,1.89,10.45,5.64,10.32Z"/>
            <path class="cls-6" d="m44.77,101.85c4.42-.16,8.62-5.85,9.39-12.72.77-6.89-2.2-12.36-6.63-12.2s-8.64,5.88-9.39,12.77c-.75,6.87,2.22,12.31,6.64,12.15Z"/>
            <path class="cls-6" d="m112.17,82.55c3.38-1.49,4.61-7.3,2.73-12.98-1.88-5.69-6.16-9.09-9.55-7.59-3.39,1.5-4.6,7.33-2.71,13.01,1.89,5.67,6.15,9.05,9.54,7.56Z"/>
            <path class="cls-6" d="m113.31,83.1c3.99-1.76,5.43-8.6,3.22-15.29-2.21-6.7-7.25-10.71-11.25-8.94-4,1.77-5.42,8.64-3.2,15.33,2.22,6.68,7.25,10.66,11.23,8.9Z"/>
            <path class="cls-6" d="m80.42,62.61c2.85-.47,4.48-4.92,3.63-9.95-.85-5.03-3.86-8.73-6.73-8.25-2.86.48-4.48,4.94-3.62,9.97.86,5.02,3.87,8.7,6.72,8.23Z"/>
            <path class="cls-6" d="m81.27,63.31c3.36-.56,5.27-5.8,4.27-11.72-1-5.93-4.55-10.29-7.92-9.73-3.37.56-5.28,5.83-4.26,11.75,1.01,5.91,4.55,10.25,7.91,9.69Z"/>
            <path class="cls-6" d="m81.16,84.25c1.22.57,3.2-.64,4.42-2.71,1.22-2.06,1.22-4.2,0-4.77-1.22-.57-3.2.64-4.42,2.71-1.22,2.06-1.22,4.2,0,4.77Z"/>
            <path class="cls-6" d="m81.26,84.72c1.44.67,3.77-.76,5.21-3.19,1.44-2.43,1.44-4.95,0-5.62-1.44-.67-3.77.76-5.21,3.19-1.44,2.43-1.43,4.94,0,5.61Z"/>
            <path class="cls-6" d="m90.26,49.96c1.22.59,2.63.39,3.16-.45.52-.84-.04-1.99-1.26-2.58-1.22-.59-2.63-.39-3.16.45-.52.84.04,1.99,1.26,2.58Z"/>
            <path class="cls-6" d="m90.48,50.24c1.44.69,3.1.45,3.72-.53.62-.99-.05-2.35-1.49-3.04-1.44-.69-3.1-.45-3.72.53-.62.99.05,2.35,1.49,3.04Z"/>
            <path class="cls-6" d="m78.5,19.8c1.23.59,2.65.39,3.17-.45.52-.84-.05-2.01-1.27-2.6-1.23-.59-2.65-.39-3.17.46-.52.84.05,2.01,1.27,2.6Z"/>
            <path class="cls-6" d="m78.72,20.08c1.44.7,3.11.46,3.73-.54.62-.99-.05-2.37-1.5-3.07-1.45-.7-3.12-.46-3.73.54-.62,1,.05,2.37,1.5,3.07Z"/>
            <path class="cls-6" d="m100.45,94.46c1.21.58,2.61.38,3.13-.44.52-.82-.04-1.96-1.25-2.54-1.21-.58-2.61-.38-3.14.44s.04,1.96,1.25,2.54Z"/>
            <path class="cls-6" d="m100.67,94.74c1.43.68,3.08.45,3.69-.52.61-.97-.04-2.31-1.47-3-1.43-.68-3.08-.45-3.69.52-.61.97.05,2.31,1.47,3Z"/>
            <path class="cls-6" d="m20.66,49.05c1.23.59,2.64.39,3.15-.45.51-.84-.06-1.99-1.29-2.58-1.23-.59-2.64-.39-3.15.45-.51.84.06,1.99,1.29,2.58Z"/>
            <path class="cls-6" d="m20.88,49.33c1.44.69,3.1.45,3.71-.53.61-.99-.07-2.35-1.52-3.04-1.44-.69-3.11-.45-3.71.53-.6.99.08,2.35,1.52,3.04Z"/>
            <path class="cls-6" d="m61.28,111.8c1.22.56,3.18-.64,4.39-2.68,1.21-2.05,1.2-4.16-.02-4.73-1.22-.56-3.19.64-4.4,2.69-1.21,2.05-1.2,4.16.02,4.73Z"/>
            <path class="cls-6" d="m61.39,112.27c1.43.66,3.75-.75,5.17-3.16,1.43-2.41,1.42-4.91-.02-5.57-1.44-.67-3.75.75-5.18,3.16-1.42,2.41-1.41,4.9.02,5.56Z"/>
            <path class="cls-6" d="m68.59,27.79c1.23.58,3.23-.66,4.45-2.75,1.23-2.1,1.22-4.28-.01-4.85-1.23-.58-3.23.66-4.46,2.76-1.23,2.1-1.22,4.27.01,4.85Z"/>
            <path class="cls-6" d="m68.69,28.27c1.45.68,3.8-.77,5.25-3.24,1.45-2.47,1.44-5.04-.01-5.72-1.45-.68-3.81.77-5.25,3.25-1.44,2.47-1.44,5.03.02,5.71Z"/>
            <path class="cls-6" d="m25.39,36.62c1.23.58,3.22-.65,4.43-2.75,1.21-2.1,1.19-4.26-.04-4.84-1.24-.58-3.22.65-4.43,2.75-1.21,2.1-1.19,4.26.05,4.84Z"/>
            <path class="cls-6" d="m25.5,37.1c1.45.68,3.79-.77,5.22-3.23,1.43-2.47,1.41-5.02-.05-5.7-1.46-.68-3.79.77-5.22,3.24-1.42,2.47-1.4,5.02.05,5.7Z"/>
            <path class="cls-6" d="m63.89,18.75c1.24.58,3.23-.66,4.46-2.76,1.23-2.11,1.22-4.29-.01-4.87-1.24-.58-3.23.66-4.46,2.77-1.23,2.11-1.22,4.28.02,4.86Z"/>
            <path class="cls-6" d="m64,19.24c1.45.68,3.8-.77,5.25-3.25,1.45-2.48,1.44-5.05-.02-5.73-1.46-.68-3.81.78-5.26,3.26-1.44,2.48-1.43,5.05.02,5.73Z"/>
          </g>
          <path class="cls-4" d="m137.19,66.4c-1.2-15.26-3.39-45.45-53.22-61.51,85.96,42.61,29.64,115.65-17.56,115.77-20.23.05-34.15-5.39-43.9-12.14,38.92,30.35,118.66,8.52,114.68-42.12Z"/>
          <path class="cls-5" d="m111.03,100.19c-.27-5.86,4.47-7.81,4.98-5.18.5,2.59-4.72,10.82-4.98,5.18Z"/>
          <path class="cls-5" d="m118.52,90.32c.65-1.39,1.53-.73,1.81.47.28,1.19-6.21,8.89-1.81-.47Z"/>
        </g>
      </g>
    </g>
  </g>
</svg>